<?xml version="1.0" encoding="UTF-8" standalone="no"?>
<!-- Created with Inkscape (http://www.inkscape.org/) -->

<svg
   width="297mm"
   height="210mm"
   viewBox="0 0 297 210"
   version="1.1"
   id="svg1"
   xml:space="preserve"
   inkscape:version="1.4.2 (ebf0e940, 2025-05-08)"
   sodipodi:docname="go_board_perspective.svg"
   xmlns:inkscape="http://www.inkscape.org/namespaces/inkscape"
   xmlns:sodipodi="http://sodipodi.sourceforge.net/DTD/sodipodi-0.dtd"
   xmlns="http://www.w3.org/2000/svg"
   xmlns:svg="http://www.w3.org/2000/svg"><sodipodi:namedview
     id="namedview1"
     pagecolor="#ffffff"
     bordercolor="#cccccc"
     borderopacity="1"
     inkscape:showpageshadow="0"
     inkscape:pageopacity="1"
     inkscape:pagecheckerboard="0"
     inkscape:deskcolor="#d1d1d1"
     inkscape:document-units="mm"
     inkscape:zoom="0.26205012"
     inkscape:cx="225.14777"
     inkscape:cy="536.15697"
     inkscape:window-width="1512"
     inkscape:window-height="822"
     inkscape:window-x="246"
     inkscape:window-y="1118"
     inkscape:window-maximized="1"
     inkscape:current-layer="svg1" /><defs
     id="defs1" /><path
     id="rect1"
     style="display:none;fill:#ffffff;stroke:#000000;stroke-width:5.19111"
     d="M 2.0555516,1.7076184 380.96699,-2.3310492 300.19364,210.77464 -66.601798,209.76497 Z"
     sodipodi:nodetypes="ccccc" /><path
     style="fill:#000000;stroke-width:1.18575"
     d="m -58.03044,55.328467 c -11.471894,34.977132 -30.16987,91.635353 -41.5514,125.910633 -11.29487,34.01443 -2.17467,6.20385 20.50197,-62.5151 23.028091,-69.783168 32.610385,-98.64444 21.04943,-63.395533 z M 100.97767,244.62099 c 122.93026,0.33794 173.67917,0.50988 111.66089,0.37944 -61.60801,-0.12924 -161.524515,-0.40434 -222.044598,-0.61066 -60.125702,-0.20513 -10.939136,-0.10197 110.383708,0.23122 z M 189.59114,-5.0274946 410.24734,-7.3793845 363.13394,116.92047 317.28573,237.88238 103.54838,237.37843 -105.37601,236.88635 -66.197293,118.67182 -25.96219,-2.7299998 Z m -207.708882,15.6451266 11.040398,-0.109563 2.12688,-6.3682013 2.129726,-6.3770698 -10.503729,0.031316 c -5.771993,0.017205 -10.813565,0.1008006 -11.20676,0.1858901 -0.561215,0.121397 -1.134169,1.50908022 -2.665565,6.4551869 l -1.948306,6.2920041 z m -4.521265,13.586797 11.021308,-0.101382 2.120477,-6.349098 2.123441,-6.357991 -10.485468,0.0236 c -5.762033,0.01293 -10.79483,0.09261 -11.187313,0.17727 -0.560267,0.120591 -1.131609,1.504124 -2.658369,6.435539 l -1.942234,6.273329 z m -4.507747,13.546362 11.002099,-0.09308 2.114193,-6.330244 2.117156,-6.339138 -10.467326,0.01589 c -5.752073,0.0088 -10.776095,0.08466 -11.167879,0.168732 -0.559164,0.11988 -1.128988,1.499144 -2.651064,6.415974 l -1.936294,6.254831 z m -4.494395,13.506048 10.983175,-0.0849 2.107789,-6.31151 2.110872,-6.320165 -10.449184,0.0083 c -5.742101,0.0046 -10.757456,0.0766 -11.148528,0.160195 -0.558156,0.119168 -1.126427,1.494282 -2.643849,6.396528 l -1.930363,6.236333 z m -4.481032,13.465969 10.964167,-0.07684 2.101623,-6.292656 2.104469,-6.301431 -10.431113,7.12e-4 c -5.73214,4.74e-4 -10.738818,0.06865 -11.129176,0.151775 -0.557148,0.118457 -1.123866,1.489302 -2.636645,6.377201 l -1.924473,6.217835 z m -4.467746,13.426009 10.945225,-0.06866 2.095386,-6.27404 2.098303,-6.282815 -10.413173,-0.0066 c -5.722261,-0.0037 -10.720282,0.06071 -11.109943,0.143239 -0.556128,0.117745 -1.121316,1.48444 -2.629483,6.357872 l -1.918591,6.199575 z m -4.454524,13.386286 10.926365,-0.06059 2.089173,-6.255543 2.092066,-6.264079 -10.395189,-0.01423 c -5.712429,-0.0078 -10.702029,0.05348 -11.090754,0.134819 -0.55512,0.116915 -1.118778,1.479698 -2.622345,6.338782 l -1.912733,6.181315 z m -4.441357,13.346687 10.907571,-0.0526 2.083007,-6.236924 2.085865,-6.245585 -10.377316,-0.0217 c -5.702603,-0.01186 -10.683607,0.04565 -11.071584,0.12652 -0.55422,0.116322 -1.116265,1.474836 -2.61529,6.319695 l -1.906923,6.163174 z m -4.428302,13.30743 10.888908,-0.0451 2.076836,-6.2182 2.079715,-6.2272 -10.359505,-0.029 c -5.692774,-0.0159 -10.665216,0.0379 -11.052601,0.11822 -0.553152,0.11561 -1.113774,1.47009 -2.608175,6.3006 l -1.901113,6.14574 z m -4.415139,13.26855 10.870184,-0.0368 2.070711,-6.20029 2.07358,-6.20977 -10.341791,-0.0356 c -5.683062,-0.0202 -10.646967,0.0296 -11.033521,0.11027 -0.552204,0.11383 -1.111285,1.4644 -2.60118,6.28092 l -1.895421,6.12677 z m -4.402216,13.22822 10.851581,-0.0285 2.064627,-6.1825 2.067474,-6.18961 -10.32404,-0.0439 c -5.673339,-0.0237 -10.628825,0.0225 -11.014668,0.10197 -0.551137,0.11383 -1.108795,1.45966 -2.594179,6.26195 l -1.88962,6.11017 z m -4.38929,13.19028 10.833011,-0.0213 2.058581,-6.16353 2.061426,-6.17183 -10.30642,-0.051 c -5.663734,-0.0285 -10.610563,0.0142 -10.995813,0.0937 -0.55019,0.11383 -1.10631,1.4561 -2.58719,6.24416 l -1.88392,6.0912 z m -4.376365,13.15234 10.814513,-0.0142 2.052533,-6.14574 2.055379,-6.15404 -10.288871,-0.0581 c -5.654014,-0.032 -10.592544,0.007 -10.977084,0.0854 -0.54912,0.11265 -1.10369,1.45136 -2.58019,6.22637 l -1.87823,6.07342 z m -4.36356,13.11202 10.796134,-0.005 2.046486,-6.12795 2.049331,-6.13626 -10.271321,-0.0652 c -5.64441,-0.0356 -10.57452,0 -10.95835,0.0771 -0.54817,0.11264 -1.10132,1.44661 -2.57319,6.2074 l -1.87266,6.05562 z m -4.35087,13.07527 10.777871,0.002 2.040439,-6.11017 2.043403,-6.11847 -10.253893,-0.0723 c -5.63492,-0.0391 -10.55649,-0.008 -10.93973,0.07 -0.5471,0.11146 -1.09883,1.44187 -2.56632,6.18843 l -1.86696,6.03784 z m -4.33807,13.03613 10.7595,0.009 2.03462,-6.0912 2.037241,-6.10068 -10.236461,-0.0795 c -5.6252,-0.0439 -10.53847,-0.0154 -10.92099,0.0617 -0.54628,0.11028 -1.09635,1.43713 -2.55956,6.16946 l -1.86127,6.02124 z m -4.32538,12.99819 10.74124,0.0178 2.02858,-6.0746 2.03142,-6.08171 -10.21914,-0.0866 c -5.61572,-0.0486 -10.52069,-0.0237 -10.9025,0.0534 -0.54533,0.11028 -1.09397,1.43239 -2.55268,6.15167 l -1.8557,6.00345 z m -4.31293,12.96025 10.7231,0.0249 2.02277,-6.05562 2.0255,-6.06511 -10.20196,-0.0937 c -5.60623,-0.051 -10.50278,-0.0296 -10.884,0.0463 -0.54426,0.10908 -1.09148,1.42764 -2.5458,6.13269 l -1.85025,5.98567 z M 5.519826,10.382972 16.588565,10.273053 18.734772,3.8965281 20.883825,-2.4889013 10.353299,-2.4574073 C 4.566602,-2.4401073 -0.48801301,-2.356334 -0.88251201,-2.271126 -1.445387,-2.1495629 -2.022847,-0.76005378 -3.568947,4.1925272 L -5.53575,10.492772 Z M 0.95753499,23.987436 12.007064,23.885818 14.14675,17.528419 16.2894,11.16201 5.777134,11.18584 c -5.77661801151,0.01304 -10.822458,0.09296 -11.216127,0.177626 -0.561808,0.120827 -1.137727,1.506139 -2.679083,6.443957 l -1.960756,6.281511 z m -4.54877399,13.564031 11.03032,-0.09332 2.133283,-6.338544 2.136366,-6.34732 -10.494006,0.01601 c -5.766657,0.0089 -10.803604,0.0849 -11.196562,0.169088 -0.56086,0.119998 -1.135118,1.501159 -2.671732,6.424393 l -1.954827,6.262894 z m -4.535137,13.523596 11.011229,-0.08514 2.12688,-6.319691 2.129962,-6.328347 -10.475745,0.0084 c -5.756697,0.0046 -10.784869,0.07684 -11.177115,0.160432 -0.559912,0.119405 -1.132629,1.496297 -2.664499,6.404946 l -1.94878,6.244397 z m -4.521739,13.4834 10.992139,-0.07707 2.12059499,-6.300719 2.12367801,-6.309613 -10.457603,8.3e-4 c -5.746737,4.75e-4 -10.766253,0.06889 -11.157788,0.152013 -0.558844,0.118575 -1.13002,1.491318 -2.657266,6.385382 l -1.942851,6.226017 z m -4.508221,13.443321 10.973048,-0.06889 2.114429,-6.282103 2.117275,-6.290878 -10.439579,-0.0066 c -5.736777,-0.0037 -10.747637,0.06095 -11.138461,0.143594 -0.557776,0.117864 -1.127292,1.486338 -2.649914,6.366054 l -1.936922,6.207638 z m -4.494941,13.40348 10.954195,-0.06071 2.108026,-6.263486 2.11099,-6.272262 -10.421437,-0.01423 c -5.726935,-0.0077 -10.729258,0.05371 -11.119133,0.135176 -0.556828,0.117152 -1.124921,1.481594 -2.642811,6.346845 l -1.931017,6.189377 z m -4.481661,13.363876 10.935342,-0.0528 2.10186,-6.244994 2.104706,-6.253646 -10.403532,-0.02158 c -5.716975,-0.01174 -10.710761,0.04577 -11.099936,0.126757 -0.555773,0.11644 -1.122276,1.476733 -2.63559,6.327749 l -1.925148,6.171124 z m -4.468308,13.32404 10.916416,-0.0439 2.095695,-6.22709 2.09854,-6.23515 -10.385746,-0.0289 c -5.707145,-0.0159 -10.692275,0.0379 -11.08075,0.11834 -0.554765,0.11573 -1.119739,1.47199 -2.628452,6.30878 l -1.919291,6.15298 z m -4.455183,13.28514 10.897765,-0.0368 2.08941,-6.2074 2.092256,-6.21689 -10.367771,-0.0367 c -5.697398,-0.0202 -10.673952,0.0296 -11.06173,0.11027 -0.553767,0.11502 -1.117209,1.46677 -2.621338,6.28922 l -1.913468,6.13507 z m -4.442056,13.24601 10.87903,-0.0285 2.083244,-6.1908 2.086208,-6.19791 -10.350067,-0.0439 c -5.687636,-0.0237 -10.655635,0.0225 -11.042723,0.10197 -0.552761,0.11502 -1.114688,1.46322 -2.614258,6.27143 l -1.90767,6.1161 z m -4.42899,13.20689 10.860414,-0.0213 2.077138,-6.17064 2.079959,-6.18013 -10.332269,-0.051 c -5.677904,-0.0284 -10.637386,0.0142 -11.023775,0.0937 -0.551776,0.11264 -1.112186,1.45728 -2.607215,6.25127 l -1.90186,6.0995 z m -4.41597,13.16775 10.841846,-0.0131 2.071042,-6.15285 2.073889,-6.16234 -10.314661,-0.0581 c -5.668217,-0.032 -10.619256,0.007 -11.004862,0.0854 -0.550781,0.11264 -1.109743,1.45254 -2.600231,6.23349 l -1.896133,6.08171 z m -4.403009,13.12981 10.823337,-0.006 2.064958,-6.13507 2.067806,-6.14337 -10.297064,-0.0652 c -5.658553,-0.0368 -10.601115,-0.001 -10.986128,0.0771 -0.549713,0.11264 -1.107134,1.4478 -2.593116,6.21451 l -1.890441,6.06393 z m -4.390168,13.09186 10.804944,0.001 2.058913,-6.11729 2.061737,-6.12558 -10.279529,-0.0723 c -5.648972,-0.0403 -10.582996,-0.008 -10.967298,0.0688 -0.548884,0.11146 -1.104763,1.44425 -2.586239,6.19673 l -1.88475,6.04614 z m -4.377196,13.05274 10.786471,0.009 2.0529,-6.09949 2.055699,-6.1078 -10.262108,-0.0806 c -5.639308,-0.0427 -10.564913,-0.0142 -10.948622,0.0617 -0.547816,0.11146 -1.102154,1.4395 -2.579243,6.17775 l -1.879059,6.02836 z m -4.364508,13.0136 10.768151,0.0178 2.046912,-6.08171 2.049687,-6.09001 -10.244594,-0.0866 c -5.629822,-0.0474 -10.54713,-0.0225 -10.93001,0.0533 -0.54686,0.11028 -1.09978,1.43476 -2.57248,6.15998 l -1.87337,6.01056 z m -4.351821,12.97685 10.750009,0.0249 2.040913,-6.06392 2.04364,-6.07223 -10.227212,-0.0937 c -5.620213,-0.051 -10.529223,-0.0297 -10.911503,0.0462 -0.54581,0.10909 -1.0973,1.42883 -2.56549,6.141 l -1.8678,5.99278 z M 29.218106,10.147601 40.315302,10.037444 42.480837,3.65256 l 2.1685,-6.3938244 -10.557443,0.031683 c -5.801519,0.017407 -10.869177,0.1013579 -11.264862,0.1866726 -0.564535,0.1217291 -1.146501,1.5130644 -2.707304,6.4721432 l -1.985657,6.3084034 z m -4.603556,13.622369 11.077869,-0.101856 2.159013,-6.365817 2.161978,-6.37471 -10.539064,0.02395 c -5.79144,0.01316 -10.850204,0.0932 -11.245059,0.177981 -0.563587,0.121065 -1.143893,1.508155 -2.699953,6.452495 l -1.979491,6.289692 z m -5.728358,13.671222 c 9.427187,-0.0038 9.939786,-0.03213 10.369976,-0.575326 0.249008,-0.314223 0.922158,-0.642202 1.496061,-0.728643 0.991998,-0.149642 1.132391,-0.43932 2.840227,-5.865905 l 1.798782,-5.71567 -10.520684,0.01625 c -5.781361,0.0089 -10.831352,0.08502 -11.225495,0.169325 -0.56252,0.120235 -1.141284,1.503175 -2.692482,6.432812 L 8.979133,37.44511 Z m -3.437726,13.451622 11.039332,-0.08537 2.070082,-5.692193 c 1.970242,-5.417695 2.025972,-5.706425 1.130376,-5.839941 -0.518173,-0.07731 -0.971841,-0.392602 -1.008125,-0.700778 -0.06213,-0.526473 -0.655957,-0.555405 -9.798563,-0.47845 -5.348562,0.04506 -9.911446,0.174186 -10.142668,0.286951 -0.231221,0.112765 -1.297684,2.995679 -2.369721,6.404236 L 4.422296,50.97795 Z m -4.562528,13.50083 11.020241,-0.07719 2.139686,-6.309019 2.142768,-6.317795 -10.484163,0.0011 C 9.943148,51.691214 4.910707,51.75975 4.517986,51.84299 3.957482,51.961802 3.381919,53.336205 1.840207,58.236791 l -1.96134901,6.233961 z m -4.549011,13.460751 11.00115,-0.06901 2.133402,-6.290284 2.136365,-6.298941 -10.466021,-0.0066 C 5.390461,65.18596 0.36679399,65.25063 -0.02521401,65.333391 -0.58465101,65.451492 -1.158791,66.821745 -2.69576,71.707746 l -1.955421,6.215582 z m -4.535494,13.420792 10.98206,-0.06095 2.127117,-6.271549 2.129963,-6.280325 -10.44788,-0.01411 c -5.74140101,-0.0077 -10.75653,0.05383 -11.147591,0.135412 -0.558488,0.117271 -1.130968,1.483492 -2.663313,6.355027 l -1.949372,6.197322 z m -4.522094,13.381073 10.963206,-0.0529 2.120714,-6.253064 2.123678,-6.261705 -10.429856,-0.02158 c -5.731441,-0.01174 -10.738033,0.04601 -11.128382,0.126994 -0.557421,0.116559 -1.128359,1.478748 -2.655961,6.335931 l -1.943444,6.179074 z m -5.63504,13.42506 c 9.32971799,0.0356 9.8371,0.0107 10.26148,-0.52173 0.245688,-0.30829 0.910893,-0.62845 1.478749,-0.71145 0.981445,-0.14229 1.119585,-0.42687 2.796235,-5.75788 l 1.765938,-5.61512 -10.411952,-0.0289 c -5.721599,-0.0159 -10.719416,0.0381 -11.109053,0.11857 -0.556473,0.11585 -1.125751,1.47389 -2.648847,6.31685 l -1.937516,6.16056 z m -3.368952,13.21874 10.92538099,-0.0368 2.03451001,-5.59199 c 1.936329,-5.32046 1.990874,-5.60504 1.10417,-5.74022 -0.513074,-0.0783 -0.962829,-0.39011 -0.999469,-0.69366 -0.06284,-0.51818 -0.65062101,-0.54901 -9.698722,-0.51225 -5.293188,0.0213 -9.808761,0.12925 -10.037255,0.23952 -0.228613,0.10909 -1.276934,2.94066 -2.329406,6.28922 l -1.911547,6.0829 z m -4.482016,13.26261 10.906527,-0.0296 2.101979,-6.19791 2.104944,-6.20622 -10.376142,-0.0427 c -5.701916,-0.0249 -10.68254,0.0225 -11.070873,0.10198 -0.554338,0.11383 -1.120652,1.4644 -2.63438,6.27854 l -1.925896,6.1244 z m -4.468973,13.22349 10.887911,-0.0213 2.095813,-6.17894 2.098659,-6.18843 -10.358237,-0.051 c -5.692192,-0.0284 -10.664279,0.0154 -11.051901,0.0937 -0.553389,0.11383 -1.118162,1.45966 -2.627325,6.26076 l -1.919943,6.10661 z m -4.455693,13.18435 10.869177,-0.013 2.089647,-6.16116 2.092612,-6.16946 -10.34057,-0.0581 c -5.682469,-0.032 -10.646066,0.007 -11.032893,0.0854 -0.552429,0.11264 -1.115672,1.45491 -2.620294,6.2406 l -1.914144,6.09001 z m -4.442649,13.14641 10.850561,-0.006 2.083599,-6.14218 2.086327,-6.15167 -10.322901,-0.0664 c -5.672711,-0.0356 -10.62777,0 -11.013921,0.0783 -0.551433,0.11265 -1.113159,1.45018 -2.613227,6.22282 l -1.908351,6.07104 z m -5.544377,13.18435 c 9.234431,0.0759 9.736477,0.0522 10.155166,-0.46955 0.242486,-0.30237 0.900102,-0.61422 1.461911,-0.69248 0.97101,-0.13636 1.107016,-0.4162 2.75343,-5.65366 l 1.733922,-5.51729 -10.305353,-0.0735 c -5.663035,-0.0391 -10.609616,-0.007 -10.99507,0.07 -0.550444,0.11146 -1.11066,1.44543 -2.606205,6.20384 l -1.902595,6.05326 z m -3.30191,12.99226 10.813683,0.009 1.999886,-5.49239 c 1.903366,-5.22679 1.956606,-5.50663 1.078677,-5.64299 -0.508094,-0.0794 -0.953936,-0.38774 -0.99105,-0.68655 -0.06344,-0.50987 -0.645285,-0.54307 -9.600685,-0.54544 -5.239083,-0.001 -9.708244,0.0854 -9.934106,0.19328 -0.226016,0.10671 -1.25667,2.88848 -2.290217,6.17894 l -1.877089,5.97618 z m -4.403745,13.0314 10.795245,0.0166 2.065256,-6.08883 2.068079,-6.09713 -10.270207,-0.0877 c -5.643814,-0.0474 -10.573534,-0.0225 -10.95761,0.0545 -0.54848,0.11028 -1.105688,1.43595 -2.592227,6.1659 l -1.891165,6.01887 z m -4.390879,12.99226 10.776901,0.0249 2.059221,-6.07104 2.062043,-6.08053 -10.252766,-0.0937 c -5.634232,-0.051 -10.555556,-0.0296 -10.938968,0.0462 -0.547461,0.10909 -1.103222,1.4312 -2.585291,6.14812 l -1.885461,6.00108 z M 52.977333,9.9116355 l 11.125772,-0.110393 2.184982,-6.393279 2.188064,-6.4022314 -10.584596,0.031861 c -5.816341,0.017514 -10.897161,0.1016425 -11.293913,0.1870758 -0.566314,0.1218951 -1.152786,1.5150564 -2.72841,6.480645 L 41.86484,10.02203 Z m -4.645057,13.6402745 11.106326,-0.102211 2.17846,-6.374117 2.181424,-6.383011 -10.56598,0.02407 c -5.806262,0.01328 -10.878188,0.09356 -11.274229,0.178455 -0.565247,0.121065 -1.150059,1.510053 -2.720822,6.460796 l -1.998344,6.297993 z m -14.59836,12.561598 c 0.512599,0.07636 0.961999,0.394025 0.998638,0.705995 0.0632,0.539042 0.559793,0.558963 10.055515,0.402563 l 9.999904,-0.164583 2.171938,-6.355145 2.174902,-6.36392 -10.547482,0.01636 c -5.796183,0.009 -10.854118,0.08431 -11.2434,0.167428 -0.539872,0.11514 -1.16239,1.49144 -2.62608,5.805198 -1.800917,5.307891 -1.860205,5.655553 -0.983935,5.786104 z m 5.349748,14.596581 11.067671,-0.08561 2.165416,-6.336054 2.1685,-6.344948 -9.944173,0.0037 c -9.443076,0.0034 -9.956031,0.0319 -10.386695,0.57497 -0.249008,0.314224 -0.922514,0.641965 -1.496417,0.728287 -0.991998,0.149405 -1.132154,0.438846 -2.837144,5.854641 l -1.791431,5.690413 z m -4.603556,13.51838 11.048344,-0.07743 2.159013,-6.317201 2.161978,-6.325976 -10.510843,0.0011 c -5.776025,5.93e-4 -10.821391,0.06925 -11.215297,0.152606 -0.562164,0.118931 -1.142233,1.495231 -2.69853,6.402101 l -1.979965,6.242025 z m -4.589919,13.478182 11.029253,-0.06925 2.152491,-6.298348 2.155575,-6.307241 -10.492701,-0.0064 c -5.765946,-0.0036 -10.802537,0.06118 -11.195613,0.144069 -0.561216,0.118219 -1.139625,1.49025 -2.691297,6.382654 l -1.973799,6.223527 z m -4.576283,13.438104 11.010162,-0.06107 2.146089,-6.279731 2.149171,-6.288388 -10.47444,-0.01411 c -5.755986,-0.0076 -10.78404,0.05395 -11.176286,0.13565 -0.560148,0.117507 -1.137016,1.485389 -2.683826,6.363327 l -1.967871,6.205266 z m -4.562648,13.398265 10.990954,-0.0531 2.139804,-6.261004 2.142769,-6.269768 -10.456299,-0.02146 c -5.746026,-0.01174 -10.765305,0.04601 -11.156839,0.127231 -0.559082,0.116678 -1.134407,1.480528 -2.676594,6.343997 L 9.77323,104.59593 Z M 6.335267,116.83865 c 0.507619,0.0771 0.953224,0.3913 0.990101,0.69841 0.06391,0.53003 0.555524,0.55256 9.952592,0.43873 l 9.89615,-0.11976 2.133401,-6.24203 2.136484,-6.25115 -10.438275,-0.0289 c -5.736065,-0.0159 -10.74159,0.0365 -11.126603,0.11667 -0.534061,0.11111 -1.146738,1.46215 -2.58446,5.69955 -1.76902,5.21421 -1.826766,5.55571 -0.95939,5.68733 z m 5.331131,14.38197 10.953128,-0.0368 2.127117,-6.224 2.129962,-6.23349 -9.84125,-0.0379 c -9.345369,-0.0367 -9.852989,-0.0118 -10.277843,0.52055 -0.245569,0.30829 -0.911367,0.62845 -1.479223,0.71026 -0.981208,0.14348 -1.119229,0.42687 -2.793152,5.74733 l -1.75870501,5.59081 z m -4.522331,13.27921 10.934274,-0.0285 2.120832,-6.20621 2.123678,-6.21333 -10.402228,-0.0439 c -5.716382,-0.0249 -10.709693,0.0225 -11.09909301,0.10198 -0.556117,0.11502 -1.1267,1.46558 -2.65489499,6.28684 l -1.943918,6.1327 z m -4.508933,13.24127 10.915421,-0.0214 2.114548,-6.18724 2.117512,-6.19673 -10.384442,-0.051 c -5.70654,-0.0273 -10.691314,0.0154 -11.080003,0.0949 -0.55505,0.11383 -1.124091,1.46084 -2.647542,6.26787 l -1.938109,6.11491 z m -4.495771,13.20095 10.896686,-0.013 2.108382,-6.16946 2.111228,-6.17775 -10.366537,-0.0581 c -5.696817,-0.032 -10.672935,0.007 -11.060913,0.0866 -0.554101,0.11265 -1.121719,1.4561 -2.640546,6.24891 l -1.93218,6.09594 z m -4.48249,13.16301 10.87807,-0.006 2.102097,-6.15048 2.105062,-6.15997 -10.348751,-0.0652 c -5.687094,-0.0356 -10.654675,0 -11.041941,0.0783 -0.553033,0.11265 -1.11911,1.45136 -2.633431,6.22993 l -1.92637,6.07934 z m -14.237655,12.03655 c 0.502639,0.0771 0.94445,0.38893 0.981801,0.69129 0.0645,0.52173 0.551136,0.54545 9.851684,0.4743 l 9.79429499,-0.0759 2.09605001,-6.13269 2.098777,-6.14219 -10.331083,-0.0723 c -5.677252,-0.0403 -10.631315,-0.009 -11.012178,0.0676 -0.52837,0.10671 -1.131324,1.43357 -2.543789,5.59674 -1.738073,5.12244 -1.794396,5.45919 -0.935439,5.59199 z m 5.312159,14.17327 10.840838,0.009 2.089884,-6.11491 2.09272999,-6.12321 -9.74046099,-0.0795 c -9.249798,-0.0759 -9.752201,-0.0533 -10.171245,0.46956 -0.242367,0.30118 -0.900577,0.61303 -1.462385,0.69248 -0.970892,0.13517 -1.106779,0.41501 -2.750465,5.64298 l -1.726927,5.4924 z m -4.443123,13.0468 10.822339,0.0178 2.083719,-6.09713 2.086564,-6.10542 -10.295867,-0.0866 c -5.657924,-0.0474 -10.60013,-0.0237 -10.98538,0.0534 -0.550069,0.11027 -1.111522,1.43831 -2.612088,6.17538 l -1.909022,6.0248 z m -4.430199,13.00887 10.80396,0.0261 2.077553,-6.07934 2.080517,-6.08764 -10.278318,-0.0937 c -5.648319,-0.0522 -10.58213,-0.0308 -10.966621,0.0451 -0.549121,0.11027 -1.109115,1.43357 -2.605164,6.15641 l -1.903247,6.0082 z M 76.797744,9.6751975 l 11.154468,-0.110749 2.204309,-6.4017099 2.207867,-6.4106621 -10.611276,0.032051 c -5.831756,0.017597 -10.925737,0.1019152 -11.323675,0.1874671 -0.568093,0.1220611 -1.159071,1.5170603 -2.749517,6.4891706 l -2.023364,6.3250625 z m -4.686795,13.6580605 11.135022,-0.102449 2.19838,-6.382417 2.200752,-6.391429 -10.593371,0.02419 c -5.821084,0.0134 -10.906054,0.09379 -11.30328,0.178811 -0.567026,0.121302 -1.156462,1.512068 -2.742047,6.469333 l -2.017079,6.306174 z m -4.672685,13.617152 11.115694,-0.09415 2.191266,-6.363327 2.193637,-6.37222 -10.573924,0.01648 c -5.811005,0.0091 -10.887082,0.08561 -11.283597,0.170036 -0.565958,0.120591 -1.153616,1.507088 -2.734339,6.44965 l -2.010913,6.287439 z m -4.658811,13.576481 11.096129,-0.08585 2.184744,-6.344355 2.187709,-6.35313 -10.555902,0.0088 c -5.800807,0.0049 -10.867991,0.07743 -11.263794,0.161499 -0.564891,0.119761 -1.151126,1.502108 -2.726988,6.429966 l -2.004628,6.268704 z m -4.64482,13.535928 11.076683,-0.07755 2.178341,-6.325383 2.181306,-6.334276 -10.53776,0.0012 c -5.790609,7.11e-4 -10.849019,0.06949 -11.24411,0.152962 -0.563825,0.119049 -1.148399,1.497128 -2.719399,6.410282 l -1.998582,6.250207 z m -4.630946,13.495613 11.057355,-0.06937 2.17182,-6.30653 2.174784,-6.315304 -10.519381,-0.0064 c -5.780531,-0.0036 -10.830165,0.06142 -11.224427,0.144306 -0.562876,0.118456 -1.14579,1.492266 -2.712047,6.390955 l -1.992416,6.231708 z m -4.61731,13.455534 11.038264,-0.0613 2.165298,-6.287795 2.168381,-6.296569 -10.50112,-0.01387 c -5.77057,-0.0077 -10.811549,0.05407 -11.204981,0.135887 -0.561808,0.117508 -1.143063,1.487286 -2.704577,6.371508 l -1.986368,6.213211 z m -4.603437,13.415464 11.019055,-0.0531 2.158895,-6.269174 2.161859,-6.277719 -10.482859,-0.02158 c -5.76061,-0.01174 -10.792814,0.04624 -11.185416,0.127468 -0.56086,0.116915 -1.140573,1.482543 -2.697225,6.352301 l -1.980321,6.194834 z m -4.589919,13.37561 10.999964,-0.0451 2.152492,-6.25044 2.155456,-6.25922 -10.464717,-0.0289 c -5.750531,-0.0158 -10.774079,0.0384 -11.16597,0.11917 -0.559792,0.11608 -1.137964,1.47756 -2.689874,6.33297 l -1.974273,6.17657 z m -4.576284,13.33613 10.980993,-0.0368 2.146089,-6.2323 2.149053,-6.2406 -10.446575,-0.0368 c -5.74069,-0.019 -10.755464,0.0308 -11.146761,0.11146 -0.558725,0.11502 -1.135356,1.4727 -2.682522,6.31412 l -1.968226,6.1576 z m -4.562647,13.297 10.961902,-0.0296 2.139805,-6.21333 2.142768,-6.22163 -10.42867,-0.0439 c -5.730729,-0.0249 -10.736847,0.0225 -11.127433,0.10198 -0.557658,0.11502 -1.132747,1.46796 -2.675171,6.29514 l -1.962297,6.13982 z m -4.549248,13.25668 10.943049,-0.0213 2.133401,-6.19436 2.136484,-6.20384 -10.410647,-0.051 c -5.721006,-0.0285 -10.718468,0.0142 -11.108224,0.0937 -0.556709,0.11383 -1.130256,1.46321 -2.668055,6.27617 l -1.956251,6.12203 z m -4.535849,13.21874 10.924195,-0.013 2.127236,-6.17776 2.130081,-6.18487 -10.392743,-0.0581 c -5.711164,-0.032 -10.69997,0.007 -11.089014,0.0854 -0.555761,0.11384 -1.127767,1.45848 -2.660823,6.25721 l -1.950321,6.10424 z m -4.52245,13.17961 10.90546,-0.006 2.120833,-6.15879 2.123796,-6.16708 -10.374837,-0.0652 c -5.701323,-0.0368 -10.681591,-0.001 -11.069924,0.0771 -0.554813,0.11265 -1.125158,1.45373 -2.65359,6.23823 l -1.944511,6.08646 z m -4.509289,13.14049 10.886845,0.002 2.114666,-6.141 2.117512,-6.1493 -10.357051,-0.0723 c -5.691481,-0.0403 -10.663212,-0.008 -11.050952,0.07 -0.553745,0.11146 -1.12255,1.44898 -2.646357,6.21926 l -1.938701,6.06866 z m -4.495889,13.10135 10.868228,0.0107 2.108382,-6.12321 2.111346,-6.13033 -10.339383,-0.0806 c -5.681758,-0.0439 -10.644952,-0.0154 -11.03198,0.0617 -0.552797,0.11146 -1.12006001,1.44543 -2.63924301,6.20147 l -1.93277199,6.05088 z m -4.482728,13.06459 10.849612,0.0166 2.102216,-6.10424 2.105062,-6.11254 -10.321597,-0.0877 c -5.672154,-0.0474 -10.62681,-0.0225 -11.013127,0.0546 -0.551729,0.11027 -1.117569,1.4395 -2.632246,6.1825 l -1.926844,6.03309 z m -4.469684,13.02546 10.831114,0.0249 2.09605,-6.08645 2.099015,-6.09594 -10.304167,-0.0937 c -5.66243,-0.0522 -10.608549,-0.0308 -10.994273,0.0462 -0.550781,0.10909 -1.114961,1.43475 -2.625013,6.16353 l -1.921152,6.0153 z M 100.68005,9.4380475 l 11.18281,-0.111105 2.22447,-6.4100692 2.22683,-6.4191081 -10.63854,0.03223 c -5.846937,0.017708 -10.953962,0.1022022 -11.352374,0.1878726 -0.570345,0.1222271 -1.165592,1.5190642 -2.771097,6.4977199 l -2.043047,6.333327 z m -4.728769,13.6759655 11.162649,-0.102686 2.21854,-6.390836 2.21972,-6.399848 -10.61957,0.02443 c -5.836265,0.01352 -10.934989,0.09403 -11.333401,0.179167 -0.567974,0.121421 -1.162035,1.514084 -2.762798,6.47787 l -2.035932,6.314474 z m -4.714542,13.634938 11.143681,-0.09427 2.21142,-6.371627 2.2138,-6.380639 -10.601794,0.0166 c -5.82559,0.0091 -10.914828,0.08585 -11.31324,0.170511 -0.566789,0.120709 -1.159664,1.508985 -2.755683,6.457949 l -2.028818,6.295739 z m -4.700312,13.594267 11.124705,-0.08608 2.20431,-6.352537 2.206678,-6.361548 -10.582816,0.009 c -5.816103,0.0049 -10.895856,0.07767 -11.293082,0.161736 -0.566789,0.119998 -1.157292,1.504124 -2.747383,6.438385 l -2.023956,6.276886 z m -4.686084,13.553596 11.104548,-0.07779 2.197195,-6.333683 2.200751,-6.342458 -10.563846,0.0013 c -5.805431,7.12e-4 -10.877121,0.0696 -11.273398,0.153199 -0.565484,0.119287 -1.154565,1.499144 -2.740268,6.418702 l -2.017435,6.258388 z m -4.67304,13.513162 11.085576,-0.0696 2.191265,-6.314712 2.194824,-6.323604 -10.54606,-0.0063 c -5.795827,-0.0034 -10.858387,0.06154 -11.253953,0.144661 -0.564535,0.118575 -1.151956,1.494164 -2.732798,6.399255 l -2.01115,6.239653 z m -4.658219,13.472846 11.066011,-0.06142 2.185337,-6.295858 2.187709,-6.304751 -10.528274,-0.01387 c -5.785155,-0.0076 -10.839058,0.05419 -11.233676,0.136124 -0.563468,0.117745 -1.149347,1.489302 -2.725327,6.379809 l -2.004985,6.221274 z m -4.644464,13.432768 11.046921,-0.0532 2.178222,-6.277244 2.18178,-6.285895 -10.510013,-0.02146 c -5.775313,-0.01174 -10.820442,0.04636 -11.21423,0.127705 -0.562519,0.117034 -1.146738,1.484441 -2.717976,6.36048 l -1.998818,6.202894 z m -4.630828,13.39341 11.028068,-0.0463 2.171582,-6.25791 2.174547,-6.26728 -10.49116,-0.0289 c -5.765234,-0.0158 -10.801589,0.0384 -11.194665,0.11929 -0.561452,0.11632 -1.144011,1.47958 -2.710505,6.34115 l -1.992772,6.18499 z m -4.616954,13.35273 11.008858,-0.0368 2.165179,-6.2406 2.168263,-6.24891 -10.473136,-0.0356 c -5.755156,-0.0202 -10.782855,0.0308 -11.175219,0.11028 -0.560504,0.1162 -1.141522,1.47507 -2.703154,6.32241 l -1.986606,6.1659 z m -4.603318,13.3136 10.989886,-0.0297 2.158776,-6.22044 2.161741,-6.23112 -10.454995,-0.0439 c -5.745314,-0.0237 -10.764237,0.0237 -11.15589,0.10316 -0.559437,0.11502 -1.138913,1.47033 -2.695803,6.30345 l -1.980558,6.14811 z m -4.589682,13.27447 10.970795,-0.0213 2.152373,-6.20266 2.155338,-6.21214 -10.436852,-0.051 c -5.735354,-0.0285 -10.745622,0.0154 -11.136564,0.0937 -0.558369,0.11502 -1.136304,1.46558 -2.68845,6.28447 l -1.97463,6.13033 z m -4.576165,13.23534 10.951942,-0.0142 2.14597,-6.18487 2.149053,-6.19318 -10.418947,-0.0581 c -5.725512,-0.032 -10.727124,0.007 -11.117354,0.0866 -0.557421,0.11265 -1.133696,1.45966 -2.681099,6.26432 l -1.968701,6.11254 z m -4.562766,13.19621 10.933207,-0.006 2.139686,-6.16709 2.142532,-6.1742 -10.400924,-0.0664 c -5.715671,-0.0356 -10.708627,0 -11.098145,0.0783 -0.556354,0.11265 -1.131087,1.4561 -2.673866,6.24653 l -1.962654,6.09357 z m -4.549248,13.15708 10.914354,0.001 2.133401,-6.14811 2.136366,-6.15641 -10.383138,-0.0735 c -5.705829,-0.0391 -10.690247,-0.007 -11.079054,0.07 -0.555406,0.11265 -1.128597,1.45136 -2.666634,6.22756 l -1.956724,6.07697 z m -4.535849,13.11795 10.895619,0.0107 2.127116,-6.13033 2.130082,-6.13981 -10.365352,-0.0794 c -5.696105,-0.0439 -10.671868,-0.0154 -11.059964,0.0617 -0.554456,0.11147 -1.126106,1.44662 -2.659518,6.20859 l -1.950796,6.05918 z m -4.522569,13.08001 10.877003,0.0178 2.120832,-6.11254 2.123797,-6.12084 -10.347566,-0.0866 c -5.686263,-0.0486 -10.653607,-0.0237 -11.040991,0.0534 -0.55339,0.11146 -1.123498,1.44187 -2.652286,6.1908 l -1.944985,6.04021 z m -4.509288,13.04206 10.858386,0.0249 2.114666,-6.09475 2.117513,-6.10187 -10.329898,-0.0949 c -5.676541,-0.051 -10.635347,-0.0297 -11.02202,0.0462 -0.552441,0.11028 -1.121008,1.43713 -2.645171,6.17183 l -1.939056,6.02361 z M 124.62271,9.2003045 l 11.21246,-0.111342 2.24343,-6.4185829 2.247,-6.4275851 -10.66582,0.032416 c -5.86116,0.01781 -10.98123,0.1024797 -11.38201,0.1882699 -0.57154,0.1224014 -1.17153,1.5210764 -2.79245,6.5063011 l -2.06083,6.341628 z m -4.77027,13.6938705 11.1923,-0.102923 2.23751,-6.399137 2.23988,-6.4082675 -10.64685,0.024551 c -5.85168,0.01352 -10.96345,0.09427 -11.36304,0.179522 -0.57035,0.121658 -1.16797,1.515981 -2.78414,6.486408 l -2.05491,6.322656 z m -4.75604,13.652962 11.17213,-0.09462 2.2304,-6.380046 2.23395,-6.388939 -10.62906,0.01684 c -5.841,0.0091 -10.94329,0.08597 -11.3417,0.170748 -0.56916,0.120828 -1.16678,1.511001 -2.77702,6.466488 l -2.04898,6.30392 z m -4.743,13.611934 11.15316,-0.0862 2.22447,-6.360955 2.22684,-6.369849 -10.61009,0.0091 c -5.83033,0.005 -10.92432,0.0779 -11.32273,0.162092 -0.56797,0.120116 -1.16322,1.506021 -2.76872,6.446803 l -2.041865,6.285068 z m -4.72759,13.571264 11.1342,-0.07802 2.21616,-6.341865 2.22091,-6.350758 -10.5923,0.0014 c -5.81966,7.11e-4 -10.904158,0.06984 -11.301384,0.153554 -0.567974,0.119405 -1.160849,1.501041 -2.761611,6.427002 l -2.035933,6.266451 z m -4.71335,13.530711 11.11403,-0.06972 2.21024,-6.323012 2.2138,-6.331786 -10.57334,-0.0062 c -5.81017,-0.0034 -10.885181,0.06178 -11.282407,0.144899 -0.566788,0.118694 -1.158477,1.496179 -2.753311,6.407556 l -2.030004,6.247834 z m -4.700314,13.490277 11.095064,-0.06154 2.20431,-6.304039 2.20668,-6.312933 -10.55436,-0.01387 c -5.800691,-0.0075 -10.8674,0.05443 -11.263441,0.13648 -0.564417,0.117863 -1.15492,1.491199 -2.746197,6.38799 l -2.022889,6.229338 z m -4.686084,13.450207 11.076088,-0.0535 2.1972,-6.285314 2.20075,-6.293957 -10.536575,-0.02146 c -5.790017,-0.01162 -10.848426,0.04648 -11.243281,0.127942 -0.564417,0.117271 -1.152549,1.486338 -2.737896,6.368665 l -2.018147,6.210954 z m -4.671854,13.41023 11.057118,-0.0451 2.190084,-6.26693 2.19363,-6.27534 -10.517599,-0.0289 c -5.779345,-0.0158 -10.829454,0.0387 -11.223123,0.11953 -0.563231,0.11656 -1.150177,1.48147 -2.730782,6.34933 l -2.011862,6.19246 z m -4.657626,13.37052 11.03696,-0.0379 2.184152,-6.24772 2.187708,-6.25602 -10.499815,-0.0368 c -5.769859,-0.0202 -10.810127,0.0308 -11.203677,0.11147 -0.562164,0.11501 -1.147569,1.47625 -2.723786,6.32953 l -2.005222,6.1742 z m -4.643397,13.3302 11.016803,-0.0296 2.178222,-6.22875 2.180595,-6.23823 -10.480844,-0.0439 c -5.760017,-0.0237 -10.791747,0.0225 -11.184586,0.10316 -0.561097,0.11502 -1.14496,1.47152 -2.716435,6.31056 l -1.999055,6.15641 z m -4.630946,13.29107 10.998423,-0.0213 2.172294,-6.21096 2.17348,-6.21926 -10.463057,-0.051 c -5.749702,-0.0284 -10.772776,0.0154 -11.164903,0.0949 -0.56003,0.11384 -1.142352,1.46678 -2.708964,6.29159 l -1.993009,6.13744 z m -4.616717,13.25194 10.980044,-0.013 2.165179,-6.19317 2.167551,-6.20029 -10.445271,-0.0593 c -5.739859,-0.032 -10.754277,0.008 -11.145693,0.0866 -0.559081,0.11384 -1.139743,1.46203 -2.701613,6.27262 l -1.986961,6.12084 z m -4.603081,13.21281 10.960953,-0.005 2.158539,-6.17538 2.161267,-6.1825 -10.426892,-0.0652 c -5.730018,-0.0368 -10.73578,-0.001 -11.126484,0.0783 -0.558014,0.11264 -1.137135,1.45728 -2.694261,6.25364 l -1.980914,6.10187 z m -4.589445,13.17487 10.941981,0.001 2.152255,-6.15523 2.1551,-6.16471 -10.409224,-0.0735 c -5.720176,-0.0403 -10.717163,-0.008 -11.107275,0.07 -0.556947,0.11264 -1.134526,1.45254 -2.686909,6.23586 l -1.974985,6.08408 z m -4.575928,13.13455 10.923128,0.009 2.145852,-6.13744 2.148816,-6.14693 -10.39132,-0.0795 c -5.710334,-0.0439 -10.698784,-0.0154 -11.088066,0.0617 -0.556116,0.11146 -1.132035,1.4478 -2.679794,6.21689 l -1.968938,6.0663 z m -4.562647,13.09661 10.904512,0.0178 2.139567,-6.12084 2.142532,-6.12796 -10.373534,-0.0877 c -5.700611,-0.0474 -10.680523,-0.0225 -11.069094,0.0546 -0.555049,0.11027 -1.129426,1.44306 -2.672443,6.19791 l -1.963009,6.04851 z m -4.54913,13.05748 10.885777,0.0261 2.133283,-6.10187 2.136247,-6.11136 -10.355747,-0.0937 c -5.690888,-0.0522 -10.662144,-0.0308 -11.050003,0.0462 -0.554101,0.10909 -1.126937,1.43832 -2.665329,6.17894 l -1.95708,6.03073 z M 148.62822,8.9618505 l 11.24091,-0.111579 2.2636,-6.4270259 2.26715,-6.4360821 -10.69309,0.032603 c -5.87658,0.017913 -11.01088,0.1027631 -11.41166,0.1886718 -0.5739,0.122571 -1.17863,1.5231029 -2.81378,6.5148966 l -2.08099,6.3500946 z m -4.81296,13.7120125 11.22075,-0.103161 2.25767,-6.407674 2.26004,-6.4166855 -10.67531,0.02478 c -5.8659,0.01352 -10.99071,0.0945 -11.3915,0.179878 -0.57153,0.1217775 -1.17507,1.5179975 -2.80548,6.4948275 l -2.07388,6.331074 z m -4.79873,13.670866 11.20178,-0.09486 2.25056,-6.388346 2.25292,-6.397477 -10.65633,0.01696 c -5.85524,0.0094 -10.97056,0.08632 -11.37135,0.171222 -0.57034,0.120946 -1.1727,1.513017 -2.79718,6.474906 l -2.06795,6.312221 z m -4.78331,13.629721 11.18162,-0.08644 2.24344,-6.369256 2.24581,-6.378148 -10.63736,0.0091 c -5.84457,0.0051 -10.95159,0.07814 -11.35119,0.162448 -0.56916,0.120353 -1.16915,1.508036 -2.79007,6.455222 l -2.06083,6.293368 z m -4.77027,13.588931 11.16264,-0.07814 2.23633,-6.350165 2.23988,-6.359058 -10.61839,0.0015 c -5.83508,8.3e-4 -10.93261,0.06996 -11.33221,0.153791 -0.56798,0.119643 -1.16678,1.503057 -2.78177,6.435539 l -2.05491,6.274515 z m -4.75605,13.548379 11.14368,-0.06996 2.22921,-6.331193 2.23395,-6.339968 -10.6006,-0.0062 c -5.82441,-0.0033 -10.91364,0.0619 -11.31087,0.145254 -0.56797,0.118813 -1.16441,1.498077 -2.77584,6.415856 l -2.04898,6.256017 z m -4.74063,13.507826 11.12352,-0.06178 2.22329,-6.312221 2.22565,-6.321114 -10.58163,-0.01376 c -5.81374,-0.0075 -10.89468,0.05455 -11.29072,0.136717 -0.56678,0.117982 -1.16203,1.493097 -2.76754,6.396291 l -2.04304,6.2374 z m -4.72758,13.467514 11.10455,-0.0535 2.21616,-6.293484 2.21973,-6.302264 -10.56266,-0.02134 c -5.80425,-0.01162 -10.8757,0.0466 -11.27174,0.128299 -0.56679,0.11727 -1.15967,1.488234 -2.76043,6.376845 l -2.03593,6.218904 z m -4.71336,13.42743 11.08439,-0.0451 2.21024,-6.27498 2.2138,-6.28341 -10.54488,-0.0289 c -5.79476,-0.0158 -10.85672,0.0387 -11.25158,0.11976 -0.5656,0.11667 -1.15729,1.48337 -2.75212,6.35751 l -2.030008,6.20017 z m -4.69912,13.38712 11.06541,-0.0368 2.20431,-6.25602 2.20668,-6.26431 -10.52708,-0.0368 c -5.78409,-0.0202 -10.837758,0.0308 -11.232612,0.11146 -0.563232,0.1162 -1.153735,1.47863 -2.743826,6.33783 l -2.024075,6.1825 z m -4.6849,13.34799 11.04644,-0.0297 2.1972,-6.23704 2.19956,-6.24653 -10.50811,-0.0427 c -5.7746,-0.0249 -10.818783,0.0225 -11.212452,0.10197 -0.563231,0.11621 -1.151363,1.47389 -2.737896,6.32005 l -2.016961,6.16353 z m -4.67067,13.30885 11.02629,-0.0213 2.19126,-6.21926 2.19364,-6.22756 -10.49033,-0.051 c -5.763929,-0.0285 -10.799809,0.0154 -11.193478,0.0949 -0.562045,0.11383 -1.148991,1.46795 -2.729596,6.29988 l -2.012217,6.14575 z m -4.657626,13.26854 11.007316,-0.013 2.18415,-6.20147 2.18771,-6.20859 -10.472543,-0.0581 c -5.754444,-0.0332 -10.780838,0.007 -11.173321,0.0866 -0.56086,0.11265 -1.146621,1.46322 -2.722482,6.28092 l -2.005103,6.12677 z m -4.643397,13.22942 10.988345,-0.006 2.178218,-6.18132 2.1806,-6.1908 -10.453573,-0.0664 c -5.744958,-0.0356 -10.763052,0 -11.155535,0.0783 -0.559674,0.11383 -1.143063,1.45966 -2.714182,6.26195 l -1.999767,6.11016 z m -4.630353,13.19028 10.969372,0.002 2.171108,-6.16353 2.174666,-6.17301 -10.435785,-0.0723 c -5.734287,-0.0403 -10.74408,-0.008 -11.135259,0.07 -0.558607,0.11264 -1.140573,1.45373 -2.707423,6.24297 l -1.993246,6.09238 z m -4.616125,13.15234 10.950401,0.009 2.165179,-6.14574 2.167551,-6.15404 -10.416813,-0.0806 c -5.725275,-0.0439 -10.726412,-0.0154 -11.11688,0.0628 -0.557658,0.11146 -1.137964,1.44899 -2.700071,6.224 l -1.987198,6.07341 z m -4.602607,13.1132 10.93214,0.0166 2.158065,-6.12677 2.161622,-6.13626 -10.400212,-0.0877 c -5.714485,-0.0474 -10.706966,-0.0225 -11.096722,0.0546 -0.55671,0.11027 -1.135474,1.44424 -2.692838,6.20503 l -1.981151,6.05681 z m -4.589207,13.07408 10.913523,0.0249 2.152136,-6.10898 2.154508,-6.11847 -10.381715,-0.0949 c -5.705117,-0.051 -10.689061,-0.0308 -11.078106,0.0463 -0.555642,0.11027 -1.132865,1.44068 -2.685486,6.18724 l -1.975222,6.03902 z M 172.69539,8.7229215 l 11.27055,-0.111935 2.28375,-6.4355152 2.28732,-6.4446017 -10.72155,0.032791 c -5.892,0.018016 -11.03815,0.1030476 -11.44131,0.1890749 -0.57508,0.1227405 -1.18456,1.525127 -2.83512,6.5235253 l -2.09997,6.358359 z m -4.85565,13.7300355 11.2504,-0.103397 2.27782,-6.416211 2.27901,-6.4251055 -10.70139,0.0249 c -5.88132,0.01375 -11.01917,0.09474 -11.42114,0.180234 -0.57391,0.122014 -1.1822,1.5201315 -2.82802,6.5034825 l -2.09284,6.339375 z m -5.99752,13.779126 c 9.57256,-0.0044 10.0931,-0.03308 10.53776,-0.580425 0.25612,-0.316713 0.94504,-0.647301 1.52843,-0.734572 1.00907,-0.150827 1.15611,-0.442759 2.962,-5.912267 l 1.90313,-5.760729 -10.68361,0.01707 c -5.87064,0.0094 -11.0002,0.08656 -11.40098,0.171459 -0.57272,0.121302 -1.17864,1.515033 -2.81971,6.483562 l -2.08692,6.320403 z m -3.66871,13.557272 11.21008,-0.08668 2.17822,-5.736895 c 2.07151,-5.460378 2.13198,-5.751361 1.22488,-5.885944 -0.52529,-0.07778 -0.9818,-0.395566 -1.015,-0.706114 -0.0557,-0.530623 -0.65809,-0.559793 -9.94251,-0.481533 -5.43193,0.04565 -10.06702,0.176084 -10.30299,0.289797 -0.23596,0.113714 -1.35768,3.019275 -2.49126,6.454511 l -2.05846,6.239416 z m -4.81178,13.606717 11.19111,-0.07838 2.2553,-6.358465 2.26004,-6.367359 -10.64566,0.0017 c -5.85049,8.3e-4 -10.96108,0.0702 -11.36067,0.154148 -0.57035,0.119642 -1.1739,1.504954 -2.8043,6.443839 l -2.07388,6.282815 z m -4.79754,13.565928 11.17095,-0.07008 2.24937,-6.339375 2.25292,-6.348268 -10.62669,-0.006 c -5.83982,-0.0033 -10.9421,0.06213 -11.34051,0.145491 -0.57035,0.11905 -1.17152,1.500093 -2.796,6.424275 l -2.06795,6.26408 z m -4.78331,13.525493 11.15197,-0.0619 2.24226,-6.320521 2.24699,-6.329296 -10.6089,-0.01364 c -5.82915,-0.0075 -10.92313,0.05466 -11.32154,0.136954 -0.56798,0.118219 -1.16797,1.494993 -2.7877,6.404591 l -2.06202,6.245463 z m -4.76909,13.484947 11.13301,-0.0537 2.23632,-6.301554 2.2387,-6.310438 -10.58994,-0.02123 c -5.81966,-0.01162 -10.90415,0.04672 -11.30138,0.128417 -0.56679,0.117508 -1.16441,1.490132 -2.78058,6.385141 l -2.05491,6.226964 z m -5.89911,13.52905 c 9.47296,0.0368 9.98758,0.0107 10.4263,-0.52647 0.25257,-0.31067 0.93319,-0.63201 1.51065,-0.7162 0.9984,-0.14347 1.14188,-0.43042 2.91576,-5.80282 l 1.86755,-5.65864 -10.57214,-0.0288 c -5.80899,-0.0158 -10.884,0.0388 -11.28123,0.12 -0.56679,0.11668 -1.16203,1.48515 -2.77347,6.3657 l -2.04779,6.20811 z m -3.59519,13.32071 11.09269,-0.0379 2.14028,-5.6335 c 2.03593,-5.36315 2.09522,-5.64891 1.19761,-5.78527 -0.52055,-0.0783 -0.9735,-0.39367 -1.00671,-0.69841 -0.0569,-0.52291 -0.65334,-0.55374 -9.84053,-0.51699 -5.37501,0.0225 -9.9603,0.13044 -10.1939,0.2419 -0.23359,0.11027 -1.33515,2.96437 -2.44857,6.33902 l -2.0217,6.12795 z m -4.7264,13.36459 11.07372,-0.0296 2.21617,-6.24535 2.21972,-6.25364 -10.5342,-0.0439 c -5.79002,-0.0237 -10.84724,0.0225 -11.2421,0.10316 -0.56442,0.11502 -1.15729,1.47508 -2.75805,6.32717 l -2.03594,6.17182 z m -4.71217,13.32546 11.05475,-0.0213 2.20905,-6.22756 2.21379,-6.23468 -10.51641,-0.0522 c -5.77935,-0.0273 -10.82827,0.0154 -11.22313,0.096 -0.56323,0.11383 -1.15373,1.47033 -2.74975,6.307 l -2.03,6.15404 z m -4.69913,13.28514 11.03578,-0.013 2.20312,-6.20859 2.20668,-6.21689 -10.49863,-0.0581 c -5.76867,-0.032 -10.80811,0.007 -11.20178,0.0866 -0.56323,0.11383 -1.15255,1.46559 -2.74382,6.28803 l -2.02289,6.13626 z m -4.68371,13.2472 11.0168,-0.006 2.19601,-6.18961 2.19957,-6.19911 -10.47966,-0.0652 c -5.75919,-0.0368 -10.79032,-10e-4 -11.18281,0.0783 -0.56204,0.11264 -1.15017,1.46084 -2.73552,6.26906 l -2.018148,6.11847 z m -5.80306,13.28514 c 9.37454,0.0759 9.88441,0.0522 10.31602,-0.4743 0.2502,-0.30355 0.92252,-0.61777 1.49286,-0.69722 0.98773,-0.13755 1.13002,-0.41857 2.8707,-5.69753 l 1.83317,-5.55879 -10.46187,-0.0735 c -5.74851,-0.0403 -10.77135,-0.007 -11.163832,0.07 -0.559674,0.11264 -1.146621,1.45729 -2.727225,6.25127 l -2.012218,6.0995 z m -3.52405,13.09068 10.97767,0.009 2.10353,-5.5339 c 2.00154,-5.2671 2.05964,-5.54812 1.16914,-5.68686 -0.51461,-0.0794 -0.96282,-0.39129 -0.99603,-0.69129 -0.0581,-0.51461 -0.6486,-0.54781 -9.74093,-0.55019 -5.318089,-0.001 -9.85714,0.0866 -10.088361,0.19447 -0.230035,0.1079 -1.313811,2.91101 -2.405886,6.22637 l -1.984946,6.02124 z m -4.643394,13.12862 10.959884,0.0178 2.17704,-6.13507 2.18059,-6.14337 -10.4263,-0.0877 c -5.729539,-0.0486 -10.73459,-0.0237 -11.125887,0.0534 -0.557303,0.11146 -1.140692,1.4478 -2.712996,6.21452 l -1.999174,6.06392 z m -4.629168,13.09187 10.940912,0.0249 2.16992,-6.11729 2.17467,-6.12558 -10.408512,-0.0949 c -5.718872,-0.0522 -10.715623,-0.0308 -11.105734,0.0462 -0.557303,0.11028 -1.139506,1.44188 -2.705882,6.19436 l -1.993245,6.04614 z M 196.8254,8.4832815 l 11.29901,-0.112172 2.30391,-6.4440528 2.30747,-6.4531465 -10.74882,0.03298 c -5.90622,0.018119 -11.06779,0.1033334 -11.47095,0.1894793 -0.57746,0.1229101 -1.19168,1.5271498 -2.85765,6.5321646 l -2.11894,6.3668009 z m -4.89833,13.7481775 11.28003,-0.103753 2.2968,-6.424511 2.30036,-6.4336425 -10.72985,0.02502 c -5.89674,0.01387 -11.04764,0.0951 -11.45198,0.180708 -0.57509,0.122133 -1.18693,1.5220295 -2.84817,6.5120205 l -2.113,6.347794 z m -14.99026,12.661557 c 0.51936,0.07684 0.97113,0.397107 1.00433,0.71145 0.0569,0.54331 0.56086,0.563349 10.20575,0.40517 l 10.15714,-0.166598 2.28968,-6.405302 2.29324,-6.414196 -10.71088,0.01719 c -5.88606,0.0095 -11.02391,0.08573 -11.41995,0.169443 -0.55019,0.116204 -1.19998,1.503294 -2.74383,5.851202 -1.89839,5.349629 -1.9636,5.700137 -1.07548,5.831637 z m 5.23865,14.710769 11.23972,-0.08692 2.28257,-6.385856 2.28613,-6.394986 -10.09785,0.0043 c -9.58797,0.0042 -10.1097,0.03285 -10.55436,0.580188 -0.25731,0.316714 -0.94504,0.647064 -1.52962,0.734216 -1.00907,0.15059 -1.15492,0.442285 -2.95844,5.900766 l -1.89483,5.735117 z m -4.85446,13.624503 11.21956,-0.0785 2.27664,-6.366766 2.27901,-6.375777 -10.67293,0.0018 c -5.86472,9.48e-4 -10.98953,0.07031 -11.39031,0.154384 -0.57272,0.11988 -1.17983,1.50697 -2.82446,6.452377 l -2.09403,6.290996 z m -4.83905,13.583714 11.19941,-0.07032 2.26953,-6.347675 2.27308,-6.356568 -10.65515,-0.0059 c -5.85405,-0.0033 -10.96937,0.06225 -11.37016,0.145848 -0.57034,0.119049 -1.17626,1.501989 -2.81734,6.432574 l -2.08573,6.272262 z m -4.82481,13.542925 11.18043,-0.06202 2.26241,-6.328585 2.26597,-6.337596 -10.63618,-0.01364 c -5.84456,-0.0075 -10.9504,0.0549 -11.34999,0.137191 -0.57035,0.118338 -1.1739,1.49701 -2.81023,6.41301 l -2.07981,6.253527 z m -4.81059,13.502493 11.16028,-0.0538 2.25648,-6.309734 2.25885,-6.318509 -10.6172,-0.02134 c -5.83389,-0.01162 -10.93143,0.04696 -11.32984,0.128773 -0.57035,0.117626 -1.17152,1.492029 -2.80193,6.393436 l -2.07388,6.234924 z m -14.80053,12.39073 c 0.51461,0.0783 0.96283,0.39486 0.99603,0.70434 0.0581,0.53477 0.55611,0.55611 10.09903,0.44228 l 10.05042,-0.12094 2.24936,-6.29088 2.25174,-6.29965 -10.59823,-0.0288 c -5.8244,-0.0158 -10.90771,0.0372 -11.29901,0.11798 -0.54426,0.11206 -1.18456,1.47365 -2.69995,5.74389 -1.86519,5.25394 -1.92922,5.599 -1.04939,5.7318 z m 5.22204,14.49342 11.12233,-0.0379 2.24226,-6.27143 2.24462,-6.28092 -9.99113,-0.0391 c -9.48837,-0.0368 -10.00417,-0.0107 -10.4429,0.52529 -0.25375,0.31066 -0.93437,0.63319 -1.51183,0.71619 -0.9984,0.14348 -1.14187,0.43043 -2.9122,5.79239 l -1.85925,5.6335 z m -4.7679,13.38238 11.10218,-0.0297 2.23632,-6.25364 2.2387,-6.26195 -10.56148,-0.0439 c -5.80424,-0.0237 -10.87451,0.0225 -11.27055,0.10316 -0.56679,0.1162 -1.16322,1.47744 -2.7794,6.33546 l -2.0549,6.18013 z m -4.75367,13.34205 11.0832,-0.0213 2.22921,-6.23467 2.23277,-6.24416 -10.54369,-0.051 c -5.79357,-0.0285 -10.85554,0.0154 -11.25158,0.0949 -0.56442,0.11502 -1.15966,1.4727 -2.7711,6.31649 l -2.04779,6.16116 z m -4.73944,13.30293 11.06423,-0.0142 2.22209,-6.2157 2.22566,-6.22518 -10.52472,-0.0581 c -5.7829,-0.032 -10.83657,0.007 -11.23142,0.0866 -0.56442,0.11384 -1.15848,1.46796 -2.76399,6.29634 l -2.04186,6.14337 z m -4.72522,13.2638 11.04526,-0.006 2.21498,-6.19791 2.21973,-6.2074 -10.50693,-0.0652 c -5.77342,-0.0368 -10.8176,0 -11.21245,0.0783 -0.56205,0.11383 -1.15492,1.46322 -2.75569,6.27855 l -2.03593,6.12439 z m -14.61437,12.12667 c 0.50988,0.0794 0.95335,0.39248 0.98773,0.69722 0.0581,0.52647 0.55256,0.55018 9.99588,0.47785 l 9.94488,-0.0759 2.20905,-6.18013 2.21261,-6.18843 -10.48796,-0.0723 c -5.76393,-0.0403 -10.79388,-0.009 -11.18162,0.0676 -0.53833,0.1079 -1.16796,1.44542 -2.65726,5.63942 -1.83199,5.16157 -1.89365,5.5007 -1.02331,5.63469 z m 5.20545,14.28235 11.00731,0.009 2.20194,-6.16116 2.2055,-6.17064 -9.88797,-0.0794 c -9.38996,-0.0771 -9.89983,-0.0534 -10.33263,0.47311 -0.25019,0.30355 -0.92251,0.61777 -1.49404,0.69722 -0.98773,0.13755 -1.12884,0.41857 -2.86715,5.68567 l -1.82605,5.53508 z m -4.68372,13.14523 10.98835,0.0178 2.19601,-6.14337 2.19956,-6.15167 -10.45238,-0.0866 c -5.74377,-0.0486 -10.76187,-0.0237 -11.15435,0.0534 -0.55967,0.11146 -1.14662,1.44899 -2.73315,6.22163 l -2.01815,6.07104 z m -4.66948,13.10728 10.96819,0.0261 2.19008,-6.12558 2.19245,-6.1327 -10.43341,-0.0949 c -5.73429,-0.0522 -10.7429,-0.0308 -11.1342,0.0462 -0.55967,0.11028 -1.14543,1.44306 -2.72722,6.20266 l -2.01103,6.05326 z M 221.01825,8.2430485 l 11.32866,-0.112528 2.32407,-6.4525305 2.32644,-6.4617074 -10.7761,0.033169 c -5.92163,0.018224 -11.09624,0.1036198 -11.50177,0.1898859 -0.57865,0.1230809 -1.19642,1.5291858 -2.87781,6.540829 l -2.1391,6.375291 z m -4.94102,13.7663195 11.3085,-0.103871 2.31696,-6.433168 2.32051,-6.4421795 -10.75831,0.02526 c -5.91096,0.01399 -11.07609,0.09534 -11.48043,0.181064 -0.57746,0.12237 -1.19405,1.5241635 -2.8707,6.5206765 l -2.13198,6.356094 z m -4.92679,13.724937 11.28953,-0.09557 2.30984,-6.413603 2.31221,-6.422733 -10.73815,0.01731 c -5.90029,0.0096 -11.05593,0.08703 -11.46027,0.172289 -0.57628,0.12154 -1.19168,1.518946 -2.8624,6.500637 l -2.12605,6.337003 z m -4.91137,13.683436 11.26936,-0.08703 2.30273,-6.394394 2.30628,-6.403405 -10.71918,0.0096 c -5.8908,0.0053 -11.03696,0.07885 -11.44011,0.163515 -0.57509,0.120828 -1.18931,1.513966 -2.85529,6.480598 l -2.11893,6.31815 z m -4.89596,13.642408 11.2492,-0.07873 2.29562,-6.375184 2.29917,-6.384078 -10.70021,0.0019 c -5.88014,9.48e-4 -11.01799,0.07055 -11.41996,0.15474 -0.5739,0.119998 -1.18575,1.508985 -2.84698,6.460796 l -2.11183,6.299177 z m -4.88174,13.601382 11.22905,-0.07043 2.2885,-6.355975 2.29324,-6.364869 -10.68242,-0.0059 c -5.86946,-0.0032 -10.99783,0.06249 -11.3998,0.146084 -0.57272,0.119405 -1.18338,1.504005 -2.83868,6.441112 l -2.1059,6.280443 z m -4.8675,13.560592 11.20889,-0.06213 2.28257,-6.336884 2.28613,-6.345897 -10.66345,-0.01352 c -5.85879,-0.0075 -10.97886,0.05502 -11.37964,0.137428 -0.57153,0.118575 -1.17982,1.499025 -2.83039,6.421429 l -2.09996,6.261708 z m -4.85209,13.520047 11.18874,-0.054 2.27545,-6.317914 2.27901,-6.326805 -10.64447,-0.02122 c -5.84931,-0.01162 -10.95871,0.04707 -11.35949,0.128891 -0.57034,0.117863 -1.17745,1.494163 -2.82208,6.401744 l -2.09404,6.243094 z m -4.83786,13.47948 11.16977,-0.0462 2.26833,-6.29847 2.2719,-6.30783 -10.6255,-0.0288 c -5.83864,-0.0158 -10.94092,0.039 -11.33933,0.12048 -0.57035,0.11703 -1.17508,1.48906 -2.81616,6.38218 l -2.08573,6.22495 z m -4.82363,13.43929 11.14961,-0.0379 2.26241,-6.27973 2.26478,-6.28922 -10.60653,-0.0356 c -5.82915,-0.0202 -10.92195,0.0308 -11.32036,0.11146 -0.56797,0.1162 -1.17152,1.48456 -2.80667,6.36273 l -2.08099,6.20622 z m -4.8094,13.40016 11.13063,-0.0296 2.2553,-6.26195 2.25767,-6.27024 -10.58756,-0.0439 c -5.81848,-0.0237 -10.90297,0.0225 -11.3002,0.10316 -0.56797,0.11621 -1.17034,1.47982 -2.79956,6.34377 l -2.07387,6.18724 z m -4.79517,13.35866 11.11166,-0.0213 2.24818,-6.24298 2.25174,-6.25127 -10.56978,-0.051 c -5.80898,-0.0285 -10.88399,0.0142 -11.28003,0.0949 -0.56679,0.11502 -1.16797,1.47389 -2.79245,6.32361 l -2.06794,6.16945 z m -4.78095,13.31953 11.09269,-0.013 2.24107,-6.22401 2.24462,-6.23348 -10.5508,-0.0581 c -5.79832,-0.0332 -10.86502,0.007 -11.26106,0.0866 -0.56561,0.11383 -1.16441,1.46914 -2.78415,6.30463 l -2.06083,6.15167 z m -4.76671,13.2804 11.07253,-0.006 2.23514,-6.20503 2.23869,-6.21452 -10.53301,-0.0664 c -5.78883,-0.0356 -10.84487,0 -11.24091,0.0783 -0.56442,0.11383 -1.16204,1.46559 -2.77703,6.28685 l -2.0549,6.1327 z m -4.75249,13.24127 11.05356,0.002 2.22921,-6.18724 2.23158,-6.19673 -10.51523,-0.0735 c -5.77816,-0.0403 -10.82589,-0.007 -11.22075,0.0711 -0.56441,0.11264 -1.15966,1.45965 -2.76991,6.26668 l -2.04898,6.11492 z m -4.73825,13.20214 11.03458,0.009 2.2221,-6.16945 2.22447,-6.17776 -10.49626,-0.0806 c -5.76868,-0.0439 -10.80811,-0.0154 -11.20178,0.0628 -0.56205,0.11146 -1.15611,1.45492 -2.76161,6.24772 l -2.04186,6.09713 z m -4.72403,13.16182 11.01561,0.0178 2.21499,-6.15049 2.21853,-6.15997 -10.47847,-0.0877 c -5.758,-0.0474 -10.78914,-0.0225 -11.18281,0.0545 -0.56086,0.11146 -1.15373,1.45017 -2.75331,6.22874 l -2.03712,6.07934 z m -4.7098,13.12388 10.99546,0.0261 2.20905,-6.1327 2.21142,-6.141 -10.4595,-0.096 c -5.74851,-0.051 -10.77135,-0.0296 -11.16383,0.0462 -0.55968,0.11146 -1.15018,1.44661 -2.7462,6.21096 l -2.03,6.06155 z M 245.27277,8.0022225 l 11.3583,-0.112765 2.34422,-6.4611746 2.34779,-6.4702982 -10.80455,0.033359 c -5.93705,0.018329 -11.12471,0.1039085 -11.53142,0.1902939 -0.57983,0.1232514 -1.20354,1.5312265 -2.90035,6.5495217 l -2.15806,6.3837095 z m -4.98371,13.7845805 11.33814,-0.104227 2.33712,-6.441587 2.34067,-6.4507165 -10.78559,0.02538 c -5.92637,0.01399 -11.10573,0.09557 -11.51126,0.181419 -0.57864,0.122488 -1.19997,1.5261795 -2.89204,6.5293325 l -2.15095,6.364513 z m -4.96948,13.74296 11.31799,-0.09581 2.32999,-6.42214 2.33356,-6.431152 -10.76542,0.01755 c -5.91689,0.0096 -11.08558,0.08727 -11.49111,0.172526 -0.57746,0.121777 -1.1976,1.52108 -2.88374,6.509293 l -2.14502,6.345304 z m -4.95406,13.701459 11.29783,-0.08727 2.32407,-6.402812 2.32525,-6.411825 -10.74645,0.0097 c -5.90622,0.0053 -11.06542,0.07909 -11.46976,0.16387 -0.57746,0.120947 -1.19524,1.515982 -2.87663,6.489135 l -2.13791,6.32645 z m -4.93865,13.660314 11.27767,-0.07897 2.31577,-6.383485 2.31933,-6.392496 -10.72748,0.0019 c -5.89555,0.0012 -11.04645,0.07091 -11.4496,0.155096 -0.57628,0.120235 -1.19287,1.511001 -2.86833,6.469333 l -2.13198,6.307478 z m -4.92442,13.619167 11.25751,-0.07067 2.30984,-6.364276 2.31222,-6.373169 -10.7097,-0.0058 c -5.88487,-0.0032 -11.02629,0.06261 -11.42944,0.14644 -0.5739,0.119405 -1.18931,1.505903 -2.86003,6.449413 l -2.12486,6.288624 z m -4.909,13.57826 11.23735,-0.06225 2.30273,-6.345185 2.30509,-6.354078 -10.69072,-0.01364 c -5.8742,-0.0074 -11.00731,0.05526 -11.4081,0.137784 -0.5739,0.118693 -1.18693,1.501041 -2.85291,6.429729 l -2.11894,6.26989 z m -4.89478,13.537707 11.21838,-0.0542 2.29443,-6.326094 2.29917,-6.335106 -10.67175,-0.02111 c -5.86472,-0.01162 -10.98835,0.04719 -11.38913,0.129128 -0.57272,0.117982 -1.18456,1.496061 -2.84461,6.410168 l -2.11182,6.251164 z m -4.88054,13.49656 11.19822,-0.0451 2.2885,-6.3076 2.29205,-6.31602 -10.65278,-0.0288 c -5.85405,-0.0158 -10.96937,0.0391 -11.36897,0.12071 -0.57153,0.11715 -1.181,1.49096 -2.83631,6.39048 l -2.10589,6.23254 z m -4.86514,13.45708 11.17807,-0.0379 2.28138,-6.28804 2.28494,-6.29751 -10.6338,-0.0356 c -5.84338,-0.0202 -10.94922,0.0308 -11.34882,0.11147 -0.57034,0.11738 -1.17863,1.48693 -2.82801,6.37103 l -2.09996,6.21451 z m -4.8509,13.41676 11.15909,-0.0296 2.27427,-6.27025 2.27783,-6.27736 -10.61484,-0.0439 c -5.83389,-0.0249 -10.93024,0.0225 -11.32984,0.10316 -0.56916,0.1162 -1.17507,1.481 -2.8209,6.35206 l -2.09166,6.19554 z m -4.83667,13.37645 11.13893,-0.0214 2.26834,-6.25127 2.27071,-6.25958 -10.59586,-0.051 c -5.82322,-0.0285 -10.91127,0.0154 -11.30968,0.0949 -0.56798,0.11502 -1.17271,1.47626 -2.8126,6.33309 l -2.08692,6.17657 z m -4.82245,13.33731 11.11996,-0.0142 2.26123,-6.2323 2.26478,-6.2406 -10.57807,-0.0593 c -5.81373,-0.032 -10.8923,0.008 -11.28953,0.0877 -0.56797,0.11383 -1.17033,1.47151 -2.80548,6.31293 l -2.07981,6.15878 z m -4.80821,13.297 11.10099,-0.006 2.25411,-6.21333 2.25767,-6.22281 -10.55911,-0.0664 c -5.80306,-0.0356 -10.87332,0 -11.26937,0.0794 -0.56678,0.11383 -1.16796,1.46677 -2.79836,6.29396 l -2.07388,6.141 z m -4.79281,13.25787 11.08084,0.002 2.24818,-6.19554 2.25055,-6.20385 -10.54131,-0.0735 c -5.79239,-0.0403 -10.85436,-0.008 -11.2504,0.07 -0.56442,0.11383 -1.16441,1.46203 -2.79007,6.27499 l -2.06676,6.12321 z m -4.77975,13.21874 11.06186,0.009 2.24107,-6.17657 2.24462,-6.18606 -10.52353,-0.0806 c -5.7829,-0.0439 -10.83538,-0.0154 -11.23024,0.0628 -0.56442,0.11146 -1.16203,1.4561 -2.78177,6.25602 l -2.06202,6.10424 z m -4.76553,13.17842 11.04289,0.0178 2.23514,-6.15878 2.23751,-6.16709 -10.50575,-0.0877 c -5.77223,-0.0486 -10.81522,-0.0225 -11.21008,0.0545 -0.56323,0.11146 -1.15966,1.45254 -2.77465,6.23704 l -2.05491,6.08646 z m -4.7513,13.14049 11.02391,0.0261 2.22803,-6.141 2.23158,-6.14811 -10.48677,-0.096 c -5.76275,-0.0522 -10.79863,-0.0308 -11.1923,0.0462 -0.56204,0.11146 -1.1561,1.4478 -2.76635,6.21926 l -2.04898,6.06866 z M 269.59131,7.7606855 l 11.38795,-0.113002 2.36438,-6.4697599 2.36794,-6.4789102 -10.83182,0.033551 c -5.95365,0.018434 -11.15435,0.1041966 -11.56225,0.1907018 -0.5822,0.1234235 -1.20946,1.5332718 -2.92169,6.5582333 l -2.17822,6.3921882 z m -5.02758,13.8028405 11.36779,-0.104464 2.35727,-6.450124 2.36083,-6.4592545 -10.81286,0.02561 c -5.94179,0.01399 -11.13419,0.09581 -11.5409,0.181776 -0.58102,0.122606 -1.20709,1.5281945 -2.91457,6.5379885 l -2.17111,6.372931 z m -5.01216,13.761221 11.34763,-0.09605 2.35015,-6.430677 2.35372,-6.439689 -10.79389,0.01767 c -5.93112,0.0097 -11.11403,0.08751 -11.52074,0.173001 -0.57983,0.121895 -1.20472,1.522977 -2.90509,6.51783 l -2.16518,6.353723 z m -4.99675,13.719482 11.32747,-0.08751 2.34304,-6.411231 2.3466,-6.420243 -10.77491,0.0098 c -5.92164,0.0055 -11.09506,0.07921 -11.50059,0.164107 -0.57865,0.121184 -1.20116,1.517997 -2.89679,6.497791 l -2.15806,6.334751 z m -4.98134,13.678219 11.30613,-0.07921 2.33593,-6.391784 2.33948,-6.400916 -10.75475,0.002 c -5.91096,0.0012 -11.07491,0.07103 -11.48043,0.155452 -0.57746,0.120354 -1.1988,1.512898 -2.88967,6.477752 l -2.15095,6.315778 z m -4.9671,13.637072 11.28715,-0.07091 2.32881,-6.372575 2.33237,-6.381588 -10.73696,-0.0057 c -5.90029,-0.0031 -11.05475,0.06284 -11.45909,0.146677 -0.57627,0.119642 -1.19642,1.507918 -2.88137,6.45795 l -2.14502,6.296806 z m -4.95288,13.596046 11.267,-0.06261 2.32288,-6.353366 2.32525,-6.362497 -10.71799,-0.0134 c -5.88962,-0.0074 -11.03577,0.05537 -11.43893,0.138021 -0.57509,0.118812 -1.19286,1.502938 -2.87307,6.438148 l -2.13791,6.278071 z m -4.93628,13.555144 11.24684,-0.0542 2.31458,-6.334404 2.31815,-6.343284 -10.69784,-0.02111 c -5.88013,-0.0115 -11.0168,0.04731 -11.41877,0.129365 -0.57509,0.118101 -1.1905,1.497958 -2.86596,6.418469 l -2.13079,6.259344 z m -4.92323,13.51411 11.22786,-0.0451 2.30747,-6.3159 2.31222,-6.32419 -10.68005,-0.0287 c -5.86947,-0.0158 -10.99665,0.0392 -11.39862,0.12083 -0.57271,0.11739 -1.18812,1.49298 -2.85765,6.39878 l -2.12487,6.24048 z m -4.90782,13.47486 11.20771,-0.0379 2.30154,-6.29634 2.30391,-6.30581 -10.66108,-0.0356 c -5.8576,-0.0202 -10.97648,0.0308 -11.37727,0.11146 -0.57271,0.11739 -1.18575,1.48812 -2.85054,6.37934 l -2.11775,6.22281 z m -4.8924,13.43336 11.18755,-0.0296 2.29442,-6.27736 2.29799,-6.28685 -10.6433,-0.0439 c -5.84811,-0.0237 -10.95751,0.0237 -11.35711,0.10434 -0.57153,0.11621 -1.18219,1.48338 -2.84224,6.36037 l -2.11182,6.20265 z m -4.87818,13.39423 11.16739,-0.0213 2.2885,-6.25958 2.28968,-6.26787 -10.62313,-0.051 c -5.83863,-0.0285 -10.93854,0.0154 -11.33814,0.096 -0.57035,0.11502 -1.17982,1.47744 -2.83394,6.3402 l -2.10589,6.18488 z m -4.86395,13.35392 11.14843,-0.0142 2.28019,-6.23942 2.28494,-6.2489 -10.60534,-0.0593 c -5.82797,-0.032 -10.92076,0.007 -11.31917,0.0877 -0.56916,0.11383 -1.17627,1.4727 -2.82565,6.32123 l -2.09877,6.16709 z m -4.84971,13.3136 11.12945,-0.005 2.27426,-6.22163 2.27664,-6.23111 -10.58637,-0.0664 c -5.81848,-0.0356 -10.9006,0 -11.29901,0.0794 -0.56798,0.11383 -1.17389,1.46796 -2.81853,6.30226 l -2.09285,6.14812 z m -4.83549,13.27565 11.11048,0.001 2.26715,-6.20266 2.27071,-6.21214 -10.56859,-0.0735 c -5.8078,-0.0403 -10.88163,-0.007 -11.27885,0.0712 -0.56679,0.11264 -1.17152,1.46321 -2.81141,6.28328 l -2.08574,6.13033 z m -4.82007,13.23534 11.09031,0.009 2.26004,-6.18487 2.2636,-6.19317 -10.54962,-0.0806 c -5.79713,-0.0451 -10.86265,-0.0154 -11.25869,0.0617 -0.5656,0.11265 -1.16915,1.45966 -2.80311,6.26432 l -2.07981,6.11254 z m -4.80703,13.19621 11.07134,0.0178 2.25411,-6.16708 2.25649,-6.17539 -10.53065,-0.0877 c -5.78765,-0.0486 -10.84368,-0.0237 -11.23972,0.0546 -0.56561,0.11146 -1.1656,1.45373 -2.796,6.24534 l -2.07269,6.09357 z m -4.79162,13.15709 11.05238,0.0249 2.24699,-6.14812 2.24937,-6.15641 -10.51286,-0.096 c -5.77697,-0.0522 -10.82471,-0.0308 -11.21957,0.0462 -0.56441,0.11146 -1.16322,1.45017 -2.78769,6.22637 l -2.06795,6.07697 z M 293.9727,7.5185555 l 11.41759,-0.113358 2.38573,-6.47828528 2.3881,-6.48754602 -10.86029,0.033743 c -5.96906,0.018539 -11.1828,0.1044871 -11.59189,0.1911132 -0.58457,0.1235943 -1.21658,1.5353208 -2.94421,6.5669652 l -2.19838,6.400726 z m -5.07026,13.8212195 11.39742,-0.10482 2.37743,-6.458661 2.38099,-6.4677925 -10.84131,0.02573 c -5.95721,0.01411 -11.16265,0.09605 -11.57055,0.182131 -0.58339,0.122844 -1.21421,1.5302115 -2.9371,6.5467635 l -2.19008,6.38135 z m -5.05604,13.779363 11.37727,-0.09628 2.37031,-6.439096 2.37387,-6.448345 -10.82233,0.0179 c -5.94654,0.0098 -11.1425,0.08775 -11.55039,0.173239 -0.58102,0.122132 -1.21066,1.525111 -2.92762,6.526486 l -2.18415,6.362259 z m -5.03944,13.737624 11.35593,-0.08774 2.3632,-6.41965 2.36676,-6.428781 -10.80219,0.01 c -5.93586,0.0055 -11.12352,0.07944 -11.53023,0.164463 -0.57983,0.121302 -1.20828,1.520013 -2.91932,6.506329 l -2.17703,6.34305 z m -5.02521,13.696242 11.33577,-0.07944 2.35609,-6.400204 2.35964,-6.409334 -10.78321,0.0021 c -5.92519,0.0012 -11.10336,0.07126 -11.50889,0.155689 -0.57983,0.120591 -1.20591,1.514914 -2.9122,6.486289 l -2.16992,6.324079 z m -5.00979,13.654859 11.31561,-0.07103 2.34897,-6.380876 2.35253,-6.390006 -10.76424,-0.0057 c -5.91452,-0.0031 -11.0832,0.06308 -11.48873,0.147033 -0.57864,0.119761 -1.20235,1.509934 -2.90271,6.466369 l -2.164,6.305107 z m -4.99556,13.613832 11.29664,-0.06273 2.34185,-6.361667 2.34541,-6.370797 -10.74526,-0.0134 c -5.90504,-0.0072 -11.06423,0.05561 -11.46857,0.138377 -0.57746,0.11893 -1.1988,1.504835 -2.89561,6.446448 l -2.15687,6.286253 z m -4.97897,13.572925 11.2753,-0.0544 2.33593,-6.342704 2.33829,-6.351468 -10.72629,-0.02111 c -5.89436,-0.0115 -11.04526,0.04743 -11.44842,0.129721 -0.57627,0.118219 -1.19642,1.499855 -2.8873,6.426767 l -2.15095,6.267404 z m -4.96473,13.53178 11.25632,-0.0462 2.32763,-6.32313 2.33118,-6.3325 -10.70732,-0.0287 c -5.88369,-0.0158 -11.0251,0.0394 -11.42826,0.12107 -0.57509,0.11751 -1.19405,1.49499 -2.879,6.40708 l -2.14383,6.24866 z m -4.95051,13.49146 11.23617,-0.0379 2.3217,-6.30463 2.32407,-6.31294 -10.68835,-0.0368 c -5.87421,-0.019 -11.00614,0.032 -11.4081,0.11264 -0.57391,0.11739 -1.1905,1.49049 -2.8707,6.38764 l -2.13791,6.22993 z m -4.93509,13.45234 11.21601,-0.0308 2.31458,-6.28566 2.31696,-6.29396 -10.66938,-0.0439 c -5.86353,-0.0249 -10.98597,0.0225 -11.38676,0.10435 -0.5739,0.11502 -1.1893,1.48456 -2.86358,6.36748 l -2.1308,6.21214 z m -4.92086,13.41083 11.19703,-0.0225 2.30747,-6.26669 2.30984,-6.27617 -10.6504,-0.051 c -5.85286,-0.0285 -10.967,0.0154 -11.36779,0.096 -0.57153,0.11502 -1.18575,1.47982 -2.85528,6.34851 l -2.12368,6.19317 z m -4.90545,13.37051 11.17688,-0.013 2.30035,-6.2489 2.30392,-6.2572 -10.63262,-0.0581 c -5.84219,-0.0332 -10.94685,0.007 -11.34763,0.0866 -0.57035,0.11502 -1.18219,1.47626 -2.84699,6.32954 l -2.11775,6.17538 z m -4.89122,13.33139 11.15791,-0.006 2.29324,-6.22993 2.2968,-6.23823 -10.61365,-0.0664 c -5.8327,-0.0356 -10.92906,0 -11.32747,0.0794 -0.57035,0.11384 -1.17982,1.47033 -2.83987,6.31056 l -2.11182,6.15642 z m -4.87699,13.29226 11.13894,0.001 2.28612,-6.21096 2.28969,-6.21925 -10.59468,-0.0735 c -5.82203,-0.0403 -10.9089,-0.008 -11.30731,0.07 -0.56916,0.11383 -1.17745,1.46559 -2.83276,6.29159 l -2.1047,6.13862 z m -4.86157,13.25194 11.11877,0.009 2.2802,-6.19198 2.28257,-6.20147 -10.57689,-0.0818 c -5.81136,-0.0439 -10.88993,-0.0154 -11.28715,0.0628 -0.56798,0.11265 -1.17508,1.46085 -2.82446,6.27262 l -2.09878,6.11966 z m -4.84735,13.21281 11.09862,0.0178 2.27308,-6.17419 2.27664,-6.18369 -10.55791,-0.0877 c -5.80188,-0.0486 -10.87214,-0.0237 -11.26818,0.0546 -0.56679,0.11146 -1.17271,1.4561 -2.81735,6.25246 l -2.09166,6.10305 z m -4.8343,13.17368 11.08083,0.0249 2.26597,-6.15523 2.26953,-6.16471 -10.54013,-0.096 c -5.79121,-0.0522 -10.85199,-0.0308 -11.24803,0.0462 -0.5656,0.11146 -1.16915,1.45136 -2.80904,6.23467 l -2.08573,6.08408 z M 318.41812,7.2758325 l 11.44723,-0.113631 2.40589,-6.48696468 2.40944,-6.49620202 -10.88874,0.033941 c -5.98448,0.018646 -11.21245,0.1047788 -11.62272,0.1915247 -0.58576,0.1237674 -1.22369,1.5373781 -2.96674,6.57572322 l -2.21736,6.40920388 z m -5.11414,13.8395995 11.42708,-0.105058 2.39758,-6.467317 2.40233,-6.4764485 -10.86977,0.02597 c -5.97262,0.01423 -11.19229,0.0964 -11.60138,0.182606 -0.58457,0.122962 -1.22013,1.532226 -2.95844,6.5553005 l -2.21024,6.389887 z M 307.029,35.00412 c 9.72077,-0.005 10.2508,-0.03403 10.7085,-0.58576 0.26561,-0.319204 0.96876,-0.6524 1.56282,-0.740382 1.02686,-0.152132 1.17982,-0.446435 3.08651,-5.959342 l 2.00984,-5.806618 -10.85079,0.01802 c -5.96195,0.0098 -11.17095,0.08798 -11.58004,0.173594 -0.58339,0.12225 -1.21776,1.527127 -2.95014,6.535142 l -2.20313,6.37056 z m -3.90824,13.664701 11.38676,-0.0881 2.28731,-5.782428 c 2.17822,-5.50354 2.24344,-5.796894 1.3233,-5.932426 -0.5324,-0.0785 -0.99129,-0.398767 -1.02093,-0.711805 -0.0498,-0.534655 -0.66165,-0.564062 -10.09073,-0.484616 -5.5173,0.04648 -10.22591,0.178218 -10.4678,0.292761 -0.24071,0.114662 -1.41816,3.043227 -2.61577,6.505736 l -2.17348,6.288743 z m -5.06789,13.714146 11.36541,-0.07956 2.37743,-6.408623 2.3798,-6.417753 -10.81167,0.0023 c -5.94179,0.0012 -11.13182,0.07138 -11.53972,0.156045 -0.58101,0.120709 -1.21183,1.51693 -2.93354,6.494826 l -2.19008,6.332379 z m -5.05248,13.672883 11.34525,-0.07115 2.36913,-6.389414 2.37269,-6.398306 -10.7927,-0.0056 c -5.92993,-0.003 -11.11166,0.0632 -11.51837,0.14727 -0.57983,0.119998 -1.20828,1.51195 -2.92525,6.474906 l -2.18296,6.313407 z m -5.03825,13.631618 11.32509,-0.06285 2.36202,-6.370086 2.36557,-6.379097 -10.77254,-0.01328 c -5.92045,-0.0072 -11.09269,0.05573 -11.49822,0.138614 -0.57864,0.119168 -1.2059,1.506851 -2.91694,6.454985 l -2.17704,6.294435 z m -5.02284,13.590592 11.30613,-0.0545 2.35489,-6.350884 2.35846,-6.359886 -10.75475,-0.02099 c -5.90859,-0.0115 -11.07253,0.04755 -11.47687,0.129958 -0.57865,0.118457 -1.20354,1.501871 -2.90983,6.435188 l -2.16993,6.275584 z m -6.17064,13.63411 c 9.61762,0.0368 10.14172,0.0107 10.59349,-0.53003 0.26205,-0.31304 0.9569,-0.63793 1.54384,-0.72212 1.01619,-0.14466 1.16678,-0.43398 3.03908,-5.84812 l 1.97072,-5.70286 -10.7346,-0.0287 c -5.8991,-0.0156 -11.05356,0.0395 -11.45671,0.12142 -0.57746,0.11763 -1.20117,1.49689 -2.90153,6.41538 l -2.16281,6.25709 z m -3.82879,13.42506 11.26463,-0.0379 2.24818,-5.67856 c 2.14028,-5.40465 2.20312,-5.69278 1.29365,-5.82914 -0.52766,-0.0795 -0.98299,-0.39723 -1.01263,-0.70553 -0.051,-0.52528 -0.65572,-0.5573 -9.98639,-0.51935 -5.458,0.0225 -10.11563,0.13161 -10.35515,0.24307 -0.23834,0.11146 -1.39563,2.98809 -2.57071,6.38882 l -2.13435,6.17658 z m -4.97778,13.46894 11.24566,-0.0308 2.33355,-6.29396 2.33711,-6.30227 -10.69665,-0.0439 c -5.87894,-0.0237 -11.01443,0.0237 -11.41758,0.10435 -0.5739,0.1162 -1.19405,1.48693 -2.88493,6.37577 l -2.14977,6.22045 z m -4.96236,13.42743 11.22549,-0.0213 2.32645,-6.27498 2.32999,-6.28448 -10.67767,-0.051 c -5.86828,-0.0284 -10.99546,0.0154 -11.39625,0.0961 -0.5739,0.11502 -1.19286,1.48219 -2.87781,6.3568 l -2.14265,6.20148 z m -4.94813,13.3883 11.20533,-0.013 2.32051,-6.25721 2.32289,-6.26431 -10.65871,-0.0593 c -5.8576,-0.032 -10.97648,0.008 -11.37727,0.0877 -0.57272,0.11501 -1.18931,1.47744 -2.86833,6.33783 l -2.13672,6.1825 z m -4.93272,13.34917 11.18636,-0.006 2.31221,-6.23823 2.31696,-6.24653 -10.64092,-0.0664 c -5.84693,-0.0356 -10.95633,0 -11.35711,0.0795 -0.57154,0.11383 -1.18575,1.4727 -2.86122,6.31886 l -2.12961,6.16353 z m -6.06986,13.38593 c 9.51683,0.0771 10.035,0.0534 10.48085,-0.47667 0.25849,-0.30711 0.94504,-0.62252 1.52606,-0.70315 1.00433,-0.13873 1.15254,-0.42213 2.99046,-5.74021 l 1.93514,-5.60267 -10.62195,-0.0735 c -5.83626,-0.0403 -10.93735,-0.008 -11.33577,0.0711 -0.57153,0.11264 -1.18456,1.46677 -2.8541,6.2987 l -2.12367,6.14693 z m -3.7529,13.19147 11.14724,0.009 2.20905,-5.57658 c 2.10233,-5.30742 2.16518,-5.59082 1.26401,-5.72955 -0.52173,-0.0794 -0.9735,-0.39367 -1.00314,-0.69722 -0.0522,-0.51817 -0.65098,-0.55137 -9.88323,-0.55374 -5.40109,-0.001 -10.0101,0.0877 -10.24607,0.19564 -0.23596,0.10909 -1.37309,2.93355 -2.52683,6.27381 l -2.09522,6.06748 z m -4.88884,13.22941 11.12707,0.0178 2.29324,-6.1825 2.29562,-6.1908 -10.58519,-0.0877 c -5.81729,-0.0486 -10.89942,-0.0237 -11.29664,0.0546 -0.56916,0.11146 -1.17864,1.45728 -2.8375,6.26076 l -2.11182,6.11017 z m -4.87462,13.19028 11.1081,0.0261 2.28494,-6.16353 2.28969,-6.17301 -10.56622,-0.0949 c -5.80662,-0.0534 -10.88044,-0.032 -11.27767,0.0462 -0.56797,0.11028 -1.17626,1.45255 -2.83038,6.24179 l -2.10352,6.0912 z M 342.92757,7.0324925 l 11.47688,-0.113962 2.42723,-6.49562128 2.42841,-6.50488172 -10.9172,0.034138 c -5.9987,0.018747 -11.24091,0.1050693 -11.65236,0.1919374 -0.58695,0.1239381 -1.22962,1.5394377 -2.98928,6.58450482 l -2.23751,6.41772908 z m -5.15801,13.8580025 11.45672,-0.105413 2.41774,-6.475855 2.42249,-6.4851035 -10.89704,0.02621 c -5.98923,0.01435 -11.22194,0.09664 -11.63221,0.182961 -0.58576,0.123081 -1.22725,1.534242 -2.97979,6.5640745 l -2.23158,6.398307 z m -15.3934,12.762938 c 0.52647,0.07743 0.98061,0.40019 1.01026,0.717023 0.051,0.547579 0.56204,0.567737 10.35871,0.40766 l 10.31721,-0.168613 2.41181,-6.456171 2.41419,-6.465302 -10.87807,0.01814 c -5.97737,0.01 -11.19585,0.08715 -11.59901,0.171578 -0.55967,0.117152 -1.23911,1.51527 -2.86477,5.897802 -2.00036,5.392197 -2.0715,5.745432 -1.17033,5.877881 z m 5.12244,14.826854 11.4164,-0.08822 2.40351,-6.436606 2.40826,-6.445737 -10.25555,0.005 c -9.73857,0.0047 -10.2686,0.03368 -10.7263,0.585524 -0.2656,0.319203 -0.96875,0.652162 -1.564,0.740026 -1.02686,0.151776 -1.17863,0.445842 -3.08295,5.947603 l -2.00036,5.78065 z m -5.11177,13.732407 11.39624,-0.0798 2.3964,-6.41716 2.39996,-6.426291 -10.83894,0.0024 c -5.95602,0.0013 -11.16146,0.07162 -11.56936,0.1564 -0.58339,0.120828 -1.21895,1.518946 -2.95608,6.503364 l -2.20905,6.340798 z m -5.09635,13.690787 11.37489,-0.07138 2.39048,-6.397714 2.39284,-6.406844 -10.81997,-0.0055 c -5.94653,-0.003 -11.1413,0.06344 -11.5492,0.147625 -0.58221,0.120117 -1.2154,1.513847 -2.94659,6.483325 l -2.20312,6.321707 z m -5.08094,13.649523 11.35474,-0.06308 2.38217,-6.378386 2.38573,-6.387516 -10.79981,-0.01316 c -5.93587,-0.0072 -11.12234,0.05585 -11.52905,0.138851 -0.57983,0.119287 -1.21183,1.508867 -2.93829,6.463404 l -2.19601,6.302736 z m -5.06553,13.608386 11.33459,-0.0548 2.37505,-6.359174 2.37862,-6.368192 -10.78084,-0.02099 c -5.92519,-0.01138 -11.10218,0.04778 -11.5077,0.130195 -0.57983,0.118575 -1.20947,1.503887 -2.93118,6.443607 l -2.18889,6.283884 z m -15.19538,12.48796 c 0.52173,0.0783 0.97231,0.39841 1.00314,0.71026 0.051,0.53833 0.5573,0.55968 10.24962,0.44466 l 10.20694,-0.12213 2.36794,-6.33997 2.3715,-6.34898 -10.76186,-0.0286 c -5.91452,-0.0156 -11.07728,0.0379 -11.47688,0.11929 -0.55374,0.11288 -1.22132,1.48515 -2.81734,5.78883 -1.96479,5.2952 -2.03356,5.64263 -1.14306,5.77662 z m 5.11058,14.60607 11.29427,-0.0379 2.36083,-6.32123 2.36438,-6.32953 -10.14646,-0.0391 c -9.6354,-0.0368 -10.15951,-0.0107 -10.61128,0.53003 -0.26205,0.31303 -0.9569,0.63793 -1.54503,0.72093 -1.015,0.14585 -1.16559,0.43399 -3.03433,5.83745 l -1.9636,5.67737 z m -5.02047,13.48671 11.27412,-0.0308 2.35371,-6.30227 2.35727,-6.31056 -10.72392,-0.0439 c -5.89318,-0.0237 -11.04289,0.0237 -11.44723,0.10435 -0.57628,0.1162 -1.20117,1.4893 -2.90628,6.38526 l -2.16873,6.22756 z m -5.00505,13.44522 11.25396,-0.0225 2.3466,-6.2821 2.35015,-6.29277 -10.70495,-0.051 c -5.8825,-0.0285 -11.02391,0.0154 -11.42588,0.096 -0.57628,0.11502 -1.1988,1.48338 -2.89916,6.36511 l -2.16162,6.20859 z m -4.99082,13.40491 11.23498,-0.013 2.33949,-6.26431 2.34304,-6.27381 -10.68598,-0.0581 c -5.87302,-0.0332 -11.00376,0.007 -11.40573,0.0877 -0.57509,0.11383 -1.19642,1.47863 -2.89085,6.34494 l -2.1557,6.1908 z m -4.97422,13.36577 11.21482,-0.006 2.33238,-6.24534 2.33592,-6.25484 -10.66819,-0.0664 c -5.86116,-0.0356 -10.9836,0 -11.38557,0.0794 -0.57272,0.11502 -1.19286,1.47507 -2.88256,6.32716 l -2.14858,6.17183 z m -15.00211,12.22152 c 0.51581,0.0795 0.96283,0.39486 0.99366,0.70197 0.0522,0.53003 0.55375,0.55374 10.14409,0.48141 l 10.09904,-0.0771 2.32525,-6.22637 2.32881,-6.23586 -10.64803,-0.0747 c -5.85286,-0.0403 -10.96107,-0.009 -11.35474,0.0688 -0.54782,0.10909 -1.20472,1.4561 -2.77347,5.6833 -1.92922,5.2007 -1.9968,5.54219 -1.11461,5.67855 z m 5.09517,14.39026 11.17569,0.0107 2.31933,-6.20859 2.3217,-6.21807 -10.03974,-0.0806 c -9.53343,-0.0771 -10.05161,-0.0534 -10.49745,0.47667 -0.25849,0.30711 -0.94504,0.62252 -1.52606,0.70315 -1.00551,0.13873 -1.15255,0.42094 -2.9869,5.72954 l -1.92803,5.57658 z m -4.93035,13.24602 11.15554,0.019 2.31221,-6.1908 2.31577,-6.19792 -10.61246,-0.0889 c -5.83152,-0.0486 -10.92669,-0.0237 -11.32628,0.0545 -0.56916,0.11146 -1.18338,1.45965 -2.85766,6.26906 l -2.12961,6.11728 z m -4.91612,13.20807 11.13657,0.0249 2.3051,-6.17065 2.30865,-6.18131 -10.59349,-0.0949 c -5.82203,-0.0534 -10.90771,-0.0308 -11.30612,0.0462 -0.56916,0.11146 -1.1822,1.45492 -2.85173,6.25009 l -2.1225,6.0995 z M 367.50106,6.7884895 l 11.5077,-0.114271 2.4462,-6.50428898 2.45095,-6.51358522 -10.94566,0.034328 c -6.01531,0.018853 -11.27174,0.1053539 -11.68438,0.1923523 -0.58932,0.1241125 -1.23555,1.5415025 -3.01062,6.59331502 l -2.25767,6.42627788 z m -5.20308,13.8763575 11.48636,-0.105532 2.44028,-6.484511 2.44264,-6.4937595 -10.92668,0.02632 c -6.00345,0.01447 -11.2504,0.09688 -11.66185,0.183317 -0.58814,0.123318 -1.23318,1.536377 -3.00232,6.5728495 l -2.25056,6.406844 z m -5.18647,13.834262 11.46621,-0.09699 2.43197,-6.464827 2.43553,-6.473957 -10.90653,0.01838 c -5.99396,0.01 -11.23024,0.08846 -11.64169,0.174305 -0.58695,0.122606 -1.23081,1.531277 -2.99402,6.552573 l -2.24344,6.387397 z m -5.17105,13.792288 11.44486,-0.08846 2.42486,-6.445144 2.42841,-6.454392 -10.88755,0.01043 c -5.98211,0.0057 -11.21008,0.08004 -11.62035,0.165412 -0.58576,0.121895 -1.22725,1.526179 -2.98572,6.532297 l -2.23633,6.368188 z m -5.15564,13.75043 11.4247,-0.08004 2.41774,-6.425579 2.42012,-6.434709 -10.8674,0.0025 c -5.97144,0.0013 -11.18992,0.07186 -11.599,0.156638 -0.58458,0.121065 -1.22488,1.520961 -2.97742,6.51202 l -2.2304,6.349098 z m -5.14023,13.708811 11.40455,-0.0715 2.41063,-6.406133 2.413,-6.415262 -10.84843,-0.0053 c -5.96076,-0.003 -11.16976,0.06356 -11.57885,0.147863 -0.58339,0.120235 -1.22132,1.515862 -2.96912,6.491862 l -2.22209,6.330007 z m -5.12362,13.667427 11.38438,-0.0632 2.40233,-6.386805 2.40589,-6.395816 -10.82827,-0.01316 c -5.95128,-0.0071 -11.15079,0.05597 -11.55869,0.139088 -0.5822,0.119524 -1.21895,1.510883 -2.96082,6.471942 l -2.21616,6.311035 z m -5.1094,13.626165 11.36423,-0.0548 2.39521,-6.367594 2.39878,-6.376493 -10.8093,-0.02087 c -5.93942,-0.0115 -11.13064,0.04779 -11.53735,0.130433 -0.58102,0.118693 -1.21658,1.505783 -2.95252,6.45202 l -2.20905,6.292064 z m -5.09279,13.58573 11.34288,-0.0474 2.3881,-6.34803 2.39166,-6.35728 -10.78914,-0.0286 c -5.92994,-0.0157 -11.11166,0.0397 -11.51719,0.12177 -0.58102,0.11798 -1.21421,1.50081 -2.94422,6.43222 l -2.20312,6.27357 z m -5.07857,13.54364 11.32391,-0.0379 2.38099,-6.32953 2.38454,-6.33783 -10.77135,-0.0368 c -5.91927,-0.0202 -11.09151,0.032 -11.49703,0.11383 -0.57865,0.11739 -1.20947,1.49523 -2.93592,6.41254 l -2.19482,6.25364 z m -5.06315,13.50332 11.30375,-0.0296 2.37387,-6.31056 2.37743,-6.31886 -10.75238,-0.0439 c -5.90859,-0.0237 -11.07135,0.0237 -11.47569,0.10435 -0.57864,0.11738 -1.20828,1.49167 -2.92761,6.39356 l -2.1889,6.23586 z m -5.04774,13.463 11.28359,-0.0213 2.36676,-6.29159 2.37032,-6.29989 -10.73341,-0.051 c -5.89792,-0.0284 -11.05119,0.0154 -11.45553,0.096 -0.57746,0.11502 -1.20472,1.48574 -2.91932,6.37341 l -2.18178,6.21688 z m -5.03232,13.42269 11.26343,-0.013 2.35965,-6.27262 2.3632,-6.28092 -10.71444,-0.0593 c -5.88725,-0.032 -11.03222,0.007 -11.43537,0.0877 -0.57628,0.11502 -1.20117,1.481 -2.91102,6.35325 l -2.17585,6.1991 z m -5.0181,13.38356 11.24447,-0.006 2.35253,-6.25364 2.35608,-6.26313 -10.69546,-0.0664 c -5.87658,-0.0356 -11.01325,0 -11.41522,0.0794 -0.57509,0.11502 -1.19879,1.47626 -2.9039,6.33428 l -2.16874,6.18131 z m -5.00149,13.34206 11.22312,0.002 2.34542,-6.23467 2.34897,-6.24416 -10.6765,-0.0735 c -5.8659,-0.0403 -10.99308,-0.008 -11.39505,0.0712 -0.57391,0.11383 -1.19642,1.47151 -2.8956,6.3153 l -2.16163,6.16116 z m -4.98845,13.30293 11.20415,0.0107 2.3383,-6.21689 2.34186,-6.22518 -10.65634,-0.0806 c -5.8576,-0.0451 -10.97411,-0.0166 -11.37608,0.0628 -0.57272,0.11265 -1.19287,1.46559 -2.88731,6.29515 l -2.15569,6.14455 z m -4.97304,13.2638 11.18518,0.0178 2.33119,-6.19791 2.33474,-6.20622 -10.63855,-0.0889 c -5.84575,-0.0486 -10.95514,-0.0237 -11.35474,0.0546 -0.57153,0.11264 -1.19049,1.46203 -2.88019,6.27736 l -2.14858,6.12558 z m -4.95762,13.22348 11.16502,0.0261 2.32526,-6.17895 2.32763,-6.18843 -10.62076,-0.096 c -5.83627,-0.0522 -10.93499,-0.0308 -11.33459,0.0462 -0.57153,0.11146 -1.18812,1.45729 -2.87188,6.25839 l -2.14265,6.10661 z M 392.13857,6.5438335 l 11.53734,-0.114567 2.46755,-6.51299258 2.4711,-6.52231232 -10.97411,0.034517 c -6.03073,0.018972 -11.3002,0.1056622 -11.71403,0.1927792 -0.5905,0.1242784 -1.24266,1.5435761 -3.03314,6.60214882 l -2.27783,6.43486388 z m -5.24695,13.8948905 11.51601,-0.105887 2.46043,-6.493167 2.46399,-6.5022975 -10.95396,0.02644 c -6.02005,0.01447 -11.28004,0.09711 -11.69387,0.183673 -0.58931,0.123555 -1.24029,1.538392 -3.02484,6.5816245 l -2.27072,6.415381 z m -5.23152,13.852642 11.49584,-0.09723 2.45332,-6.473365 2.45569,-6.482613 -10.93499,0.0185 c -6.0082,0.01008 -11.2587,0.08869 -11.67134,0.174661 -0.58931,0.122725 -1.23792,1.533294 -3.01654,6.561229 l -2.2636,6.396054 z m -5.21493,13.810548 11.47568,-0.08869 2.44502,-6.453681 2.44857,-6.46293 -10.91482,0.01055 c -5.99871,0.0058 -11.23973,0.08039 -11.65118,0.165886 -0.58813,0.121896 -1.23437,1.528076 -3.00825,6.540834 l -2.25648,6.376607 z m -5.19952,13.768691 11.45553,-0.08028 2.43672,-6.434117 2.44146,-6.443246 -10.89467,0.0026 c -5.98804,0.0014 -11.21957,0.07209 -11.63102,0.156993 -0.58576,0.121183 -1.23081,1.522977 -2.99876,6.520676 l -2.24937,6.357398 z m -5.18291,13.726834 11.43419,-0.07174 2.4296,-6.414551 2.43434,-6.423682 -10.87569,-0.0053 c -5.97737,-0.0028 -11.19941,0.06379 -11.60968,0.148219 -0.58576,0.120472 -1.22844,1.517878 -2.99165,6.500518 l -2.24225,6.338308 z m -5.16868,13.685451 11.41403,-0.06332 2.42367,-6.395224 2.42604,-6.404235 -10.85672,-0.01316 c -5.96551,-0.0071 -11.17925,0.0562 -11.58834,0.139444 -0.58457,0.119643 -1.22488,1.51278 -2.98334,6.480361 l -2.23514,6.319335 z m -5.15209,13.64395 11.39387,-0.0549 2.41538,-6.375894 2.41893,-6.38491 -10.83657,-0.02087 c -5.95602,-0.01138 -11.16028,0.04802 -11.56818,0.13067 -0.58339,0.11893 -1.22251,1.507799 -2.97386,6.46056 l -2.22921,6.300244 z m -5.13667,13.60352 11.37372,-0.0474 2.40826,-6.35645 2.41181,-6.36558 -10.81878,-0.0286 c -5.94417,-0.0156 -11.13894,0.0399 -11.54683,0.12202 -0.58221,0.1181 -1.21895,1.5027 -2.96556,6.44064 l -2.2221,6.28162 z m -5.12125,13.56142 11.35237,-0.0379 2.40114,-6.33784 2.40471,-6.34613 -10.79863,-0.0368 c -5.93349,-0.0202 -11.11878,0.032 -11.52549,0.11383 -0.58102,0.11739 -1.21776,1.49761 -2.95844,6.42084 l -2.21499,6.26195 z m -5.10584,13.52111 11.33221,-0.0296 2.39403,-6.31886 2.39759,-6.32716 -10.77965,-0.0439 c -5.92282,-0.0249 -11.09981,0.0237 -11.50533,0.10434 -0.57984,0.11739 -1.21421,1.49286 -2.95015,6.40187 l -2.20787,6.24297 z m -5.09042,13.48079 11.31205,-0.0225 2.38692,-6.2987 2.39047,-6.30938 -10.76068,-0.051 c -5.91334,-0.0284 -11.07965,0.0154 -11.48518,0.096 -0.57864,0.1162 -1.21065,1.48812 -2.94184,6.38171 l -2.20075,6.22518 z m -5.07501,13.43929 11.29189,-0.013 2.3798,-6.28092 2.38336,-6.28922 -10.74171,-0.0593 c -5.90266,-0.032 -11.06067,0.008 -11.46501,0.0877 -0.57746,0.11502 -1.20828,1.48337 -2.93355,6.36273 l -2.19482,6.20622 z m -5.06078,13.40016 11.27292,-0.006 2.37269,-6.26195 2.37505,-6.27024 -10.72155,-0.0664 c -5.89199,-0.0368 -11.0417,0 -11.44485,0.0794 -0.57746,0.11502 -1.20591,1.47863 -2.92525,6.34258 l -2.18771,6.18843 z m -5.04418,13.35984 11.25276,0.002 2.36439,-6.24297 2.36913,-6.25127 -10.70377,-0.0747 c -5.88132,-0.0403 -11.02154,-0.007 -11.4247,0.0711 -0.57509,0.11383 -1.20235,1.47389 -2.91694,6.3236 l -2.1806,6.16946 z m -5.02995,13.32072 11.2326,0.009 2.35846,-6.224 2.36083,-6.23349 -10.68361,-0.0806 c -5.87183,-0.045 -11.00257,-0.0166 -11.40454,0.0629 -0.57509,0.11264 -1.19998,1.46796 -2.90983,6.30344 l -2.17348,6.15168 z m -5.01573,13.27921 11.21364,0.019 2.35134,-6.20621 2.3549,-6.21452 -10.66582,-0.0889 c -5.86116,-0.0486 -10.9836,-0.0237 -11.38438,0.0546 -0.57391,0.11264 -1.19761,1.46321 -2.90153,6.28566 l -2.16755,6.13269 z m -4.99912,13.24127 11.19348,0.0261 2.34423,-6.18725 2.3466,-6.19673 -10.64685,-0.096 c -5.85049,-0.0522 -10.96344,-0.0308 -11.36423,0.0474 -0.57271,0.11146 -1.19405,1.45847 -2.89323,6.2655 l -2.16043,6.11491 z"
     id="path1" /><g
     inkscape:label="Layer 1"
     inkscape:groupmode="layer"
     id="layer1" /></svg>
