<?xml version="1.0" encoding="UTF-8" standalone="no"?>
<!-- Created with Inkscape (http://www.inkscape.org/) -->

<svg
   version="1.1"
   id="svg1"
   width="546.383"
   height="682.21277"
   viewBox="0 0 546.383 682.21277"
   sodipodi:docname="logo.svg"
   inkscape:version="1.4.2 (ebf0e940, 2025-05-08)"
   xmlns:inkscape="http://www.inkscape.org/namespaces/inkscape"
   xmlns:sodipodi="http://sodipodi.sourceforge.net/DTD/sodipodi-0.dtd"
   xmlns="http://www.w3.org/2000/svg"
   xmlns:svg="http://www.w3.org/2000/svg">
  <defs
     id="defs1" />
  <sodipodi:namedview
     id="namedview1"
     pagecolor="#ffffff"
     bordercolor="#cccccc"
     borderopacity="1"
     inkscape:showpageshadow="0"
     inkscape:pageopacity="1"
     inkscape:pagecheckerboard="0"
     inkscape:deskcolor="#d1d1d1"
     showgrid="false"
     inkscape:zoom="0.88388847"
     inkscape:cx="272.65883"
     inkscape:cy="342.23775"
     inkscape:window-width="1512"
     inkscape:window-height="822"
     inkscape:window-x="246"
     inkscape:window-y="1118"
     inkscape:window-maximized="1"
     inkscape:current-layer="g1" />
  <g
     inkscape:groupmode="layer"
     inkscape:label="Image"
     id="g1">
    <path
       style="display:inline;fill:#041d37;fill-opacity:1"
       d="M 99.063833,680.68138 C 88.250467,678.24087 80.11907,673.53919 70.861609,664.3745 c -6.88301,-6.81404 -9.083936,-9.84835 -12.988348,-17.90641 -13.36582,-27.58486 -12.21171,-58.32882 3.443742,-91.73668 11.533982,-24.61288 36.294101,-51.96526 61.478047,-67.9145 3.22238,-2.04076 13.33302,-7.67071 22.46808,-12.51098 21.3653,-11.32055 31.259,-17.94773 40.00284,-26.79546 8.3975,-8.49728 12.87323,-15.31516 16.8715,-25.70033 5.44306,-14.13791 6.35348,-20.70296 6.94288,-50.06546 0.50309,-25.06297 -0.97752,-143.69735 -2.35164,-188.42553 l -0.59613,-19.40426 33.1112,-30.51544 c 18.21116,-16.78349 33.64799,-31.37498 34.30407,-32.42553 1.55689,-2.492969 0.5958,-2.48581 -18.79497,0.14 -8.32659,1.12755 -19.65519,2.34603 -25.17466,2.70774 l -10.03539,0.65766 -10.46365,10.83053 c -16.64288,17.22643 -24.47962,30.72843 -26.43275,45.54121 -0.51844,3.93192 -1.31098,57.70213 -1.76121,119.48937 l -0.81859,112.34042 -5.37791,10.72341 c -2.95785,5.89787 -7.01486,13.48085 -9.01558,16.85106 -15.25213,25.69224 -48.99415,59.55638 -72.363182,72.62509 -12.762462,7.13717 -25.82644,10.3204 -30.997434,7.55296 -2.277865,-1.21907 -4.423165,-7.1682 -3.475477,-9.63784 0.37389,-0.97434 5.541753,-4.09342 11.48414,-6.93129 17.063136,-8.14872 23.942124,-16.63503 30.688103,-37.85858 3.73386,-11.74711 4.82283,-23.06629 5.60826,-58.29462 l 0.52066,-23.3528 -16.547829,0.44986 c -12.091864,0.32872 -17.560874,0.88906 -20.309918,2.08091 -4.127509,1.78947 -7.757298,6.69544 -10.533442,14.23684 -2.938437,7.98227 -6.853784,7.46481 -10.786295,-1.42552 -4.700292,-10.62607 -3.558649,-26.85521 2.561796,-36.41746 7.588758,-11.85627 17.377757,-15.35068 43.200885,-15.42155 l 11.489363,-0.0315 v -16.93656 -16.93655 l -15.063831,0.68246 c -28.069592,1.27167 -34.739743,3.43269 -39.865956,12.91591 -4.61809,8.54322 -8.256393,13.1258 -10.421119,13.1258 -1.403127,0 -2.863429,-1.63542 -4.787576,-5.3617 -2.599832,-5.0348 -2.771438,-6.2023 -2.814652,-19.14894 -0.04336,-12.99013 0.118344,-14.13962 2.796908,-19.88232 6.366848,-13.65021 16.625545,-22.89367 30.173313,-27.18726 5.268518,-1.6697 10.480342,-2.27545 23.242243,-2.70132 l 16.45082,-0.54896 0.65028,-9.81879 c 0.35765,-5.40034 0.65266,-13.56159 0.65556,-18.13612 0.0142,-22.41623 3.33151,-37.2534 12.01815,-53.75363 11.65227,-22.13342 29.05848,-37.77172 57.43395,-51.60048 l 11.74468,-5.72377 -16.57165,-1.25892 C 141.0643,103.2196 116.59268,97.608635 94.832609,87.898859 78.101745,80.433215 67.984303,74.029582 59.224952,65.361702 52.891406,59.094296 50.372512,55.569664 45.366234,45.969516 38.897731,33.56537 36.845861,31.670395 31.371069,33.044481 c -3.929668,0.986284 -8.959626,5.674997 -11.068433,10.317524 -2.507499,5.520245 -2.495972,17.99277 0.02637,28.533592 l 1.93009,8.065809 -2.360743,2.360743 C 18.599944,83.620558 16.319185,84.988698 14.83,85.362459 11.166861,86.281849 7.2085429,82.410641 3.4133889,74.197088 0.61895727,68.14932 0.51063831,67.32419 0.51063831,52.085107 V 36.255319 L 4.3118788,28.294537 C 11.171236,13.929267 23.635541,3.777282 38.006898,0.8504619 43.322394,-0.23207325 43.824002,-0.10761415 71.078855,9.0562862 122.95087,26.497216 150.08412,31.089962 200.68086,30.993542 c 48.62467,-0.09266 90.54907,-5.918387 133.2766,-18.519833 11.82942,-3.4888008 13.70249,-3.760019 25.53191,-3.6969887 26.74902,0.1425259 60.44358,11.0367977 88.48742,28.6101387 26.31913,16.492564 44.8836,34.721423 65.04142,63.865591 l 6.81159,9.84819 0.0965,91.76883 c 0.0531,50.47285 0.45861,124.39862 0.90116,164.27947 0.86411,77.87034 0.86436,77.87382 6.35725,88.80697 2.88764,5.7476 4.42162,7.28792 12.40435,12.45569 6.43509,4.16588 6.93893,4.74793 6.31201,7.29187 -0.37472,1.52054 -1.48125,4.14334 -2.45897,5.82845 -1.99452,3.4376 0.39134,3.27952 -24.31364,1.61087 -34.58777,-2.33616 -70.35742,5.04514 -102.95825,21.2461 -29.92934,14.87336 -50.84644,32.37432 -71.81937,60.08997 -7.37087,9.74057 -4.49314,9.78833 -24.18064,-0.40132 -27.71341,-14.34364 -59.66063,-24.08463 -97.02128,-29.58265 -18.73005,-2.75633 -48.57679,-2.53903 -63.58759,0.46295 -44.58163,8.91579 -76.599561,33.63763 -86.213211,66.56735 -2.293273,7.85517 -2.68111,23.4539 -0.774636,31.15566 3.167634,12.7966 11.884434,23.67676 23.072664,28.7989 5.400883,2.47261 7.467643,2.79174 28.110673,4.3406 2.22664,0.16706 3.90274,3.71414 3.90274,8.25922 0,4.09609 -0.40324,5.21331 -2.23556,6.19394 -3.49472,1.87032 -18.8291,2.10759 -26.360187,0.40787 z M 416.42554,483.666 l 7.40426,-2.82329 v -57.90305 -57.90305 l -5.3617,-5.15456 c -10.04653,-9.65839 -17.5117,-14.32743 -29.3617,-18.36409 -8.44851,-2.87794 -24.67853,-2.66342 -34.72341,0.45896 -8.9654,2.78684 -19.42697,8.06091 -24.84003,12.52282 l -3.83031,3.15726 0.29262,48.76025 c 0.22517,37.52148 0.59106,49.11961 1.58746,50.3194 0.71216,0.85754 5.30791,3.06369 10.21276,4.90255 19.82163,7.43124 41.88448,19.30006 53.21784,28.62879 l 3.44885,2.83882 7.27456,-3.30876 c 4.001,-1.81982 10.60646,-4.57924 14.6788,-6.13205 z M 207.87761,455.53683 c 23.1152,-5.04357 55.5982,-7.23073 77.50501,-5.21861 7.26681,0.66745 14.55736,1.48254 16.20121,1.81131 l 2.98882,0.59777 -0.46434,-176.57642 c -0.25538,-97.11703 -0.82399,-177.400507 -1.26356,-178.407736 -0.76851,-1.760914 -0.87899,-1.760914 -2.87368,0 -3.8206,3.372846 -14.17384,18.030266 -17.74594,25.123516 -1.9441,3.86046 -5.23155,11.91815 -7.30546,17.90597 L 271.14894,151.65958 271.34442,216 c 0.10751,35.38723 0.63623,78.28487 1.17494,95.32807 l 0.97946,30.98764 -3.92434,15.04107 c -8.00617,30.68578 -20.60858,53.90419 -40.57347,74.7517 -5.2069,5.43709 -13.63559,12.80715 -18.73042,16.37793 -12.02474,8.42768 -12.75848,8.97444 -12.09511,9.01303 0.30715,0.0179 4.67311,-0.86531 9.70213,-1.96261 z M 423.77797,318.12766 c -0.0143,-12.04383 -0.41567,-18.07335 -1.31053,-19.68507 -3.74279,-6.74108 -20.6007,-16.50957 -33.03978,-19.14525 -9.0307,-1.91348 -23.61979,-1.886 -31.87553,0.06 -13.63367,3.21373 -27.49132,12.75766 -29.60207,20.38729 -1.28999,4.66288 -1.57047,35.58158 -0.31808,35.06383 0.4529,-0.18723 4.70396,-2.28399 9.4468,-4.65947 4.74285,-2.37547 12.29995,-5.28422 16.79357,-6.46388 11.43531,-3.002 27.62443,-3.68481 36.76596,-1.55068 8.11177,1.89372 26.58102,10.51078 29.54288,13.78359 1.49449,1.6514 2.1644,1.86064 2.79182,0.87203 0.45403,-0.71541 0.81627,-9.1135 0.80496,-18.66244 z m -69.08453,-54.86729 c 8.51252,-2.91581 10.5867,-3.22208 22.15764,-3.27177 15.02224,-0.0645 22.78798,1.88606 36.62592,9.19959 4.69745,2.48267 8.83362,4.51429 9.19149,4.51472 1.16691,0.001 0.0512,-45.38194 -1.13367,-46.11424 -2.51963,-1.55722 -21.63433,-3.17899 -31.06068,-2.63532 -5.52673,0.31876 -19.0103,1.99108 -29.96349,3.71626 -10.95319,1.72518 -22.90213,3.48666 -26.55319,3.9144 l -6.6383,0.77769 -0.65512,6.12766 c -0.89001,8.32482 -1.02003,25.73374 -0.23497,31.4614 l 0.64183,4.68265 9.11544,-4.57805 c 5.01348,-2.51793 13.34168,-6.02567 18.5071,-7.79499 z m 7.34912,-54.41416 c 18.57133,-3.37703 42.07694,-4.1431 56.93618,-1.85558 l 3.82978,0.58957 V 177.96615 148.3521 L 411.82309,137.75052 C 396.95461,123.40157 388.7785,117.41744 374.29788,110.28567 361.61143,104.03754 341.95987,97.499522 332.53749,96.392106 l -5.40746,-0.63554 -0.66527,8.547254 c -0.92694,11.9091 -0.84921,105.55794 0.0884,106.54531 1.09467,1.15272 25.80468,-0.24184 35.48936,-2.00292 z"
       id="path1"
       sodipodi:nodetypes="sssssssssscsssscssscsssssssscsssssscccsssssssscsssscssssssscsssscsssssssscssssssssssssssssssssscccsssscsssscssssscssssscsscssssssssssssssssssssscsssscsscsssscccssscssss" />
    <text
       xml:space="preserve"
       style="font-size:80px;line-height:1.25;font-family:Outfit;-inkscape-font-specification:Outfit;fill:#041d37;fill-opacity:1"
       x="187.80649"
       y="649.4032"
       id="text1"><tspan
         sodipodi:role="line"
         id="tspan1"
         x="187.80649"
         y="649.4032"
         style="font-style:normal;font-variant:normal;font-weight:bold;font-stretch:normal;font-size:80px;font-family:Outfit;-inkscape-font-specification:'Outfit Bold';fill:#041d37;fill-opacity:1">Go Club</tspan></text>
  </g>
</svg>
